<?xml version="1.0" encoding="UTF-8"?>
<svg xmlns="http://www.w3.org/2000/svg" xmlns:xlink="http://www.w3.org/1999/xlink" width="123px" height="22px" viewBox="0 0 123 22" version="1.1">
<g id="surface1">
<path style=" stroke:none;fill-rule:nonzero;fill:rgb(76.470588%,10.588235%,12.941176%);fill-opacity:1;" d="M 18.609375 1.464844 C 18.667969 1.578125 18.730469 1.691406 18.789062 1.804688 C 18.5 1.707031 18.199219 1.640625 17.898438 1.59375 C 17.871094 1.90625 17.820312 2.171875 18.003906 2.453125 C 17.921875 2.65625 17.847656 2.859375 17.78125 3.066406 C 16.375 2.535156 14.859375 2.398438 13.375 2.582031 C 12.738281 2.664062 12.113281 2.816406 11.511719 3.023438 C 11.390625 2.671875 11.378906 2.429688 11.445312 2.0625 C 11.5 1.777344 11.296875 1.65625 11.089844 1.523438 C 11.554688 1.351562 12.019531 1.199219 12.5 1.078125 C 12.675781 1.035156 12.714844 1.003906 12.832031 0.867188 C 14.757812 0.542969 16.789062 0.765625 18.609375 1.464844 Z M 18.609375 1.464844 "/>
<path style=" stroke:none;fill-rule:nonzero;fill:rgb(61.176471%,8.235294%,10.196078%);fill-opacity:1;" d="M 12.832031 0.867188 C 12.714844 1.003906 12.675781 1.035156 12.5 1.078125 C 12.019531 1.199219 11.554688 1.351562 11.089844 1.523438 C 9.773438 1.976562 8.515625 2.6875 7.484375 3.628906 C 6.238281 4.742188 5.269531 6.140625 4.71875 7.722656 C 4.09375 9.503906 4.023438 11.46875 4.515625 13.292969 C 5.007812 15.136719 6.074219 16.816406 7.511719 18.070312 C 8.417969 18.910156 9.527344 19.566406 10.675781 20.015625 C 10.746094 20.0625 10.816406 20.117188 10.882812 20.167969 L 10.671875 20.253906 C 8.023438 19.265625 5.796875 17.230469 4.691406 14.613281 C 3.828125 12.597656 3.6875 10.289062 4.292969 8.183594 C 4.796875 6.414062 5.8125 4.816406 7.160156 3.578125 C 8.726562 2.140625 10.730469 1.179688 12.832031 0.867188 Z M 12.832031 0.867188 "/>
<path style=" stroke:none;fill-rule:nonzero;fill:rgb(91.372549%,12.156863%,14.901961%);fill-opacity:1;" d="M 18.609375 1.464844 C 20.664062 2.253906 22.460938 3.683594 23.664062 5.53125 C 24.664062 7.0625 25.226562 8.867188 25.246094 10.699219 C 25.28125 12.558594 24.753906 14.40625 23.769531 15.980469 C 22.570312 17.90625 20.734375 19.390625 18.621094 20.210938 C 18.574219 20.136719 18.527344 20.066406 18.484375 19.992188 C 19 19.859375 19.449219 19.609375 19.902344 19.335938 C 20.730469 18.851562 21.53125 18.273438 22.183594 17.566406 C 23.226562 16.507812 24.035156 15.222656 24.5 13.804688 C 25.152344 11.851562 25.140625 9.679688 24.453125 7.734375 C 24.011719 6.46875 23.300781 5.300781 22.382812 4.324219 C 21.867188 3.722656 21.222656 3.210938 20.578125 2.761719 C 20.023438 2.375 19.417969 2.046875 18.789062 1.804688 C 18.730469 1.691406 18.667969 1.578125 18.609375 1.464844 Z M 18.609375 1.464844 "/>
<path style=" stroke:none;fill-rule:nonzero;fill:rgb(85.098039%,11.764706%,14.509804%);fill-opacity:1;" d="M 11.089844 1.523438 C 11.296875 1.65625 11.5 1.777344 11.445312 2.0625 C 11.378906 2.429688 11.390625 2.671875 11.511719 3.023438 C 10.519531 3.382812 9.558594 3.902344 8.769531 4.601562 C 8.464844 4.84375 8.183594 5.113281 7.925781 5.398438 C 7.832031 5.355469 7.742188 5.3125 7.652344 5.269531 C 7.824219 4.882812 7.601562 4.546875 7.71875 4.160156 C 7.78125 3.929688 7.601562 3.800781 7.484375 3.628906 C 8.515625 2.6875 9.773438 1.976562 11.089844 1.523438 Z M 11.089844 1.523438 "/>
<path style=" stroke:none;fill-rule:nonzero;fill:rgb(68.627451%,9.411765%,11.764706%);fill-opacity:1;" d="M 17.898438 1.59375 C 18.199219 1.640625 18.5 1.707031 18.789062 1.804688 C 19.417969 2.046875 20.023438 2.375 20.578125 2.761719 L 20.4375 2.855469 C 20.371094 3.421875 20.476562 3.984375 20.351562 4.550781 C 19.582031 3.914062 18.710938 3.421875 17.78125 3.066406 C 17.847656 2.859375 17.921875 2.65625 18.003906 2.453125 C 17.820312 2.171875 17.871094 1.90625 17.898438 1.59375 Z M 17.898438 1.59375 "/>
<path style=" stroke:none;fill-rule:nonzero;fill:rgb(54.117647%,52.156863%,46.27451%);fill-opacity:1;" d="M 17.78125 3.066406 C 18.710938 3.421875 19.582031 3.914062 20.351562 4.550781 C 21.074219 5.152344 21.695312 5.863281 22.191406 6.664062 C 23.179688 8.273438 23.609375 10.28125 23.257812 12.144531 C 23.175781 11.660156 23.25 11.183594 23.203125 10.699219 C 23.109375 9.578125 22.839844 8.488281 22.3125 7.492188 C 20.910156 4.628906 17.84375 2.804688 14.695312 2.660156 C 14.25 2.660156 13.8125 2.679688 13.375 2.582031 C 14.859375 2.398438 16.375 2.535156 17.78125 3.066406 Z M 17.78125 3.066406 "/>
<path style=" stroke:none;fill-rule:nonzero;fill:rgb(63.529412%,60.392157%,52.941176%);fill-opacity:1;" d="M 13.375 2.582031 C 13.8125 2.679688 14.25 2.660156 14.695312 2.660156 C 17.84375 2.804688 20.910156 4.628906 22.3125 7.492188 C 22.839844 8.488281 23.109375 9.578125 23.203125 10.699219 C 23.25 11.183594 23.175781 11.660156 23.257812 12.144531 C 23.085938 13.289062 22.621094 14.390625 21.984375 15.351562 C 21.714844 15.734375 21.429688 16.105469 21.09375 16.425781 C 21.246094 15.988281 21.550781 15.675781 21.78125 15.28125 C 22.53125 14.019531 22.957031 12.574219 22.933594 11.101562 C 22.929688 9.035156 22.066406 7.035156 20.632812 5.5625 C 19.710938 4.628906 18.574219 3.886719 17.335938 3.453125 C 14.933594 2.570312 12.140625 2.761719 9.898438 4 C 9.515625 4.207031 9.195312 4.476562 8.769531 4.601562 C 9.558594 3.902344 10.519531 3.382812 11.511719 3.023438 C 12.113281 2.816406 12.738281 2.664062 13.375 2.582031 Z M 13.375 2.582031 "/>
<path style=" stroke:none;fill-rule:nonzero;fill:rgb(65.098039%,9.019608%,11.372549%);fill-opacity:1;" d="M 20.4375 2.855469 L 20.578125 2.761719 C 21.222656 3.210938 21.867188 3.722656 22.382812 4.324219 C 22.148438 4.925781 22.453125 5.59375 22.179688 6.152344 C 22.21875 6.234375 22.257812 6.316406 22.296875 6.398438 C 22.261719 6.488281 22.226562 6.574219 22.191406 6.664062 C 21.695312 5.863281 21.074219 5.152344 20.351562 4.550781 C 20.476562 3.984375 20.371094 3.421875 20.4375 2.855469 Z M 20.4375 2.855469 "/>
<path style=" stroke:none;fill-rule:nonzero;fill:rgb(73.72549%,69.411765%,61.176471%);fill-opacity:1;" d="M 17.335938 3.453125 C 18.574219 3.886719 19.710938 4.628906 20.632812 5.5625 C 22.066406 7.035156 22.929688 9.035156 22.933594 11.101562 C 22.957031 12.574219 22.53125 14.019531 21.78125 15.28125 C 21.550781 15.675781 21.246094 15.988281 21.09375 16.425781 C 20.648438 16.902344 20.152344 17.320312 19.613281 17.683594 C 18.988281 18.089844 18.324219 18.425781 17.621094 18.675781 C 17.230469 18.800781 16.851562 18.933594 16.441406 18.972656 C 16.859375 18.699219 17.320312 18.5625 17.769531 18.351562 C 19.125 17.769531 20.300781 16.773438 21.175781 15.59375 C 21.769531 14.722656 22.230469 13.734375 22.4375 12.695312 C 22.601562 12.066406 22.519531 11.355469 22.539062 10.699219 C 22.566406 10.070312 22.398438 9.511719 22.242188 8.90625 C 21.769531 7.371094 20.8125 6.046875 19.570312 5.042969 C 18.996094 4.644531 18.394531 4.226562 17.746094 3.960938 C 16.945312 3.597656 16.039062 3.402344 15.171875 3.28125 C 14.71875 3.234375 14.253906 3.265625 13.796875 3.257812 C 13.238281 3.242188 12.691406 3.359375 12.148438 3.484375 C 10.648438 3.839844 9.199219 4.617188 8.148438 5.753906 C 7.363281 6.492188 6.769531 7.449219 6.363281 8.449219 C 6.308594 8.523438 6.226562 8.582031 6.121094 8.625 C 6.425781 7.429688 7.105469 6.3125 7.925781 5.398438 C 8.183594 5.113281 8.464844 4.84375 8.769531 4.601562 C 9.195312 4.476562 9.515625 4.207031 9.898438 4 C 12.140625 2.761719 14.933594 2.570312 17.335938 3.453125 Z M 17.335938 3.453125 "/>
<path style=" stroke:none;fill-rule:nonzero;fill:rgb(92.54902%,87.45098%,76.862745%);fill-opacity:1;" d="M 13.796875 3.257812 C 14.253906 3.265625 14.71875 3.234375 15.171875 3.28125 C 16.039062 3.402344 16.945312 3.597656 17.746094 3.960938 C 18.394531 4.226562 18.996094 4.644531 19.570312 5.042969 C 20.8125 6.046875 21.769531 7.371094 22.242188 8.90625 C 22.398438 9.511719 22.566406 10.070312 22.539062 10.699219 C 22.519531 11.355469 22.601562 12.066406 22.4375 12.695312 C 22.230469 13.734375 21.769531 14.722656 21.175781 15.59375 C 20.300781 16.773438 19.125 17.769531 17.769531 18.351562 C 17.320312 18.5625 16.859375 18.699219 16.441406 18.972656 C 14.6875 19.347656 12.832031 19.183594 11.167969 18.519531 C 9.808594 17.96875 8.59375 17.101562 7.660156 15.96875 C 6.480469 14.539062 5.757812 12.660156 5.824219 10.800781 C 5.804688 10.054688 5.914062 9.339844 6.121094 8.625 C 6.226562 8.582031 6.308594 8.523438 6.363281 8.449219 C 6.769531 7.449219 7.363281 6.492188 8.148438 5.753906 C 9.199219 4.617188 10.648438 3.839844 12.148438 3.484375 C 12.691406 3.359375 13.238281 3.242188 13.796875 3.257812 Z M 13.796875 3.257812 "/>
<path style=" stroke:none;fill-rule:nonzero;fill:rgb(90.588235%,12.156863%,14.901961%);fill-opacity:1;" d="M 7.484375 3.628906 C 7.601562 3.800781 7.78125 3.929688 7.71875 4.160156 C 7.601562 4.546875 7.824219 4.882812 7.652344 5.269531 C 7.742188 5.3125 7.832031 5.355469 7.925781 5.398438 C 7.105469 6.3125 6.425781 7.429688 6.121094 8.625 C 5.914062 9.339844 5.804688 10.054688 5.824219 10.800781 C 5.757812 12.660156 6.480469 14.539062 7.660156 15.96875 C 7.605469 16.089844 7.546875 16.210938 7.492188 16.335938 C 7.527344 16.472656 7.480469 16.570312 7.441406 16.703125 C 7.480469 16.769531 7.523438 16.835938 7.5625 16.902344 C 7.527344 16.992188 7.488281 17.085938 7.453125 17.175781 C 7.539062 17.492188 7.667969 17.75 7.511719 18.070312 C 6.074219 16.816406 5.007812 15.136719 4.515625 13.292969 C 4.023438 11.46875 4.09375 9.503906 4.71875 7.722656 C 5.269531 6.140625 6.238281 4.742188 7.484375 3.628906 Z M 7.484375 3.628906 "/>
<path style=" stroke:none;fill-rule:nonzero;fill:rgb(89.803922%,17.254902%,24.705882%);fill-opacity:1;" d="M 14.585938 4.160156 C 16.609375 5.261719 18.621094 6.382812 20.648438 7.480469 C 20.21875 7.746094 19.78125 8.003906 19.332031 8.234375 C 19.203125 8.304688 19.074219 8.320312 18.929688 8.324219 C 17.476562 7.546875 16.035156 6.742188 14.585938 5.953125 C 13.097656 6.75 11.617188 7.578125 10.132812 8.386719 C 9.609375 8.070312 9.027344 7.832031 8.539062 7.464844 C 10.554688 6.367188 12.5625 5.242188 14.585938 4.160156 Z M 14.585938 4.160156 "/>
<path style=" stroke:none;fill-rule:nonzero;fill:rgb(61.176471%,8.627451%,10.588235%);fill-opacity:1;" d="M 22.382812 4.324219 C 23.300781 5.300781 24.011719 6.46875 24.453125 7.734375 C 25.140625 9.679688 25.152344 11.851562 24.5 13.804688 C 24.035156 15.222656 23.226562 16.507812 22.183594 17.566406 C 21.9375 16.894531 22.257812 16.027344 21.984375 15.351562 C 22.621094 14.390625 23.085938 13.289062 23.257812 12.144531 C 23.609375 10.28125 23.179688 8.273438 22.191406 6.664062 C 22.226562 6.574219 22.261719 6.488281 22.296875 6.398438 C 22.257812 6.316406 22.21875 6.234375 22.179688 6.152344 C 22.453125 5.59375 22.148438 4.925781 22.382812 4.324219 Z M 22.382812 4.324219 "/>
<path style=" stroke:none;fill-rule:nonzero;fill:rgb(90.196078%,4.705882%,4.705882%);fill-opacity:1;" d="M 30.941406 5.867188 C 31.867188 6.070312 32.652344 6.773438 32.894531 7.699219 C 33.011719 8.152344 33.007812 8.625 32.679688 8.988281 C 32.441406 9.265625 31.949219 9.257812 31.742188 8.949219 C 31.390625 8.472656 31.34375 7.863281 30.847656 7.445312 C 30.472656 7.179688 29.914062 7.171875 29.488281 7.296875 C 28.894531 7.480469 28.503906 8.078125 28.6875 8.699219 C 28.820312 9.136719 29.238281 9.382812 29.636719 9.539062 C 30.542969 9.878906 31.609375 10.089844 32.378906 10.714844 C 33.019531 11.222656 33.285156 12 33.304688 12.800781 C 33.355469 13.820312 33.042969 14.875 32.230469 15.539062 C 31.4375 16.191406 30.378906 16.320312 29.390625 16.152344 C 28.683594 16.035156 28.039062 15.65625 27.613281 15.074219 C 27.210938 14.519531 26.917969 13.789062 26.96875 13.097656 C 27.007812 12.710938 27.265625 12.308594 27.691406 12.308594 C 28.09375 12.300781 28.28125 12.671875 28.402344 12.996094 C 28.617188 13.589844 28.761719 14.207031 29.363281 14.527344 C 30.011719 14.828125 30.941406 14.695312 31.390625 14.101562 C 31.707031 13.707031 31.757812 13.15625 31.597656 12.683594 C 31.433594 12.261719 31.054688 12.007812 30.640625 11.859375 C 29.871094 11.578125 29.113281 11.425781 28.390625 11 C 27.769531 10.644531 27.3125 10.023438 27.179688 9.320312 C 27.03125 8.527344 27.113281 7.65625 27.5625 6.972656 C 28.277344 5.871094 29.734375 5.621094 30.941406 5.867188 Z M 30.941406 5.867188 "/>
<path style=" stroke:none;fill-rule:nonzero;fill:rgb(90.196078%,4.705882%,4.705882%);fill-opacity:1;" d="M 37.90625 5.816406 C 38.785156 5.710938 39.703125 5.84375 40.453125 6.332031 C 41.15625 6.785156 41.636719 7.472656 41.933594 8.246094 C 42.351562 9.324219 42.4375 10.554688 42.359375 11.699219 C 42.277344 12.785156 42.019531 13.890625 41.375 14.789062 C 40.902344 15.453125 40.203125 15.9375 39.40625 16.117188 C 38.410156 16.335938 37.3125 16.21875 36.457031 15.632812 C 35.6875 15.113281 35.207031 14.316406 34.925781 13.449219 C 34.578125 12.347656 34.503906 11.144531 34.621094 10 C 34.730469 8.949219 35.039062 7.859375 35.714844 7.03125 C 36.261719 6.355469 37.042969 5.921875 37.90625 5.816406 Z M 37.90625 5.816406 "/>
<path style=" stroke:none;fill-rule:nonzero;fill:rgb(90.196078%,4.705882%,4.705882%);fill-opacity:1;" d="M 57.480469 6.101562 C 57.792969 6.441406 57.925781 6.984375 58.066406 7.421875 C 58.800781 9.742188 59.550781 12.0625 60.289062 14.386719 C 60.382812 14.722656 60.515625 15.132812 60.445312 15.484375 C 60.347656 15.882812 60.027344 16.273438 59.578125 16.214844 C 59.269531 16.179688 59.105469 15.953125 58.996094 15.6875 C 58.726562 15.019531 58.550781 14.308594 58.339844 13.621094 C 57.269531 13.617188 56.203125 13.617188 55.136719 13.621094 C 54.90625 14.359375 54.738281 15.136719 54.429688 15.847656 C 54.285156 16.234375 53.804688 16.316406 53.480469 16.105469 C 53.226562 15.921875 53.066406 15.613281 53.0625 15.300781 C 53.058594 15.015625 53.144531 14.722656 53.226562 14.449219 C 53.996094 11.984375 54.765625 9.515625 55.53125 7.046875 C 55.644531 6.707031 55.769531 6.308594 56.035156 6.054688 C 56.410156 5.667969 57.128906 5.691406 57.480469 6.101562 Z M 57.480469 6.101562 "/>
<path style=" stroke:none;fill-rule:nonzero;fill:rgb(90.196078%,4.705882%,4.705882%);fill-opacity:1;" d="M 63.421875 5.960938 C 63.714844 6.222656 63.878906 6.664062 64.066406 7.011719 C 65.082031 8.945312 66.09375 10.878906 67.113281 12.808594 C 67.117188 10.871094 67.113281 8.933594 67.117188 7 C 67.125 6.664062 67.148438 6.261719 67.378906 5.996094 C 67.628906 5.703125 68.125 5.710938 68.371094 6.003906 C 68.597656 6.257812 68.632812 6.667969 68.632812 6.996094 C 68.632812 9.632812 68.636719 12.265625 68.632812 14.902344 C 68.628906 15.257812 68.589844 15.6875 68.351562 15.96875 C 68.027344 16.339844 67.367188 16.28125 67.054688 15.921875 C 66.765625 15.605469 66.574219 15.183594 66.371094 14.804688 C 65.410156 12.933594 64.457031 11.058594 63.492188 9.183594 C 63.492188 11.125 63.492188 13.0625 63.492188 15 C 63.484375 15.363281 63.460938 15.742188 63.195312 16.019531 C 62.949219 16.28125 62.503906 16.289062 62.253906 16.027344 C 61.988281 15.757812 61.957031 15.355469 61.949219 15 C 61.949219 12.433594 61.949219 9.867188 61.949219 7.300781 C 61.960938 6.863281 61.957031 6.429688 62.269531 6.089844 C 62.554688 5.753906 63.074219 5.664062 63.421875 5.960938 Z M 63.421875 5.960938 "/>
<path style=" stroke:none;fill-rule:nonzero;fill:rgb(90.196078%,4.705882%,4.705882%);fill-opacity:1;" d="M 86.320312 6.144531 C 86.554688 6.71875 86.613281 7.375 86.734375 7.980469 C 87.035156 9.59375 87.289062 11.222656 87.621094 12.828125 C 88.039062 10.957031 88.421875 9.074219 88.835938 7.199219 C 88.925781 6.816406 89 6.402344 89.265625 6.09375 C 89.519531 5.761719 90.039062 5.707031 90.402344 5.867188 C 90.734375 6.039062 90.914062 6.429688 90.996094 6.777344 C 91.464844 8.789062 91.847656 10.824219 92.332031 12.828125 C 92.710938 10.824219 93.050781 8.808594 93.417969 6.800781 C 93.484375 6.476562 93.546875 6.160156 93.796875 5.921875 C 94.101562 5.679688 94.570312 5.757812 94.796875 6.074219 C 95.121094 6.503906 94.972656 7.066406 94.894531 7.550781 C 94.4375 9.902344 93.980469 12.253906 93.515625 14.601562 C 93.417969 15.023438 93.359375 15.566406 93.082031 15.90625 C 92.789062 16.324219 92.050781 16.320312 91.746094 15.921875 C 91.496094 15.640625 91.441406 15.273438 91.351562 14.921875 C 90.878906 12.8125 90.460938 10.6875 89.984375 8.578125 C 89.953125 8.683594 89.917969 8.789062 89.890625 8.898438 C 89.472656 10.847656 89.054688 12.800781 88.628906 14.746094 C 88.527344 15.140625 88.46875 15.605469 88.191406 15.921875 C 87.882812 16.324219 87.160156 16.320312 86.859375 15.90625 C 86.589844 15.558594 86.515625 15.023438 86.425781 14.601562 C 85.953125 12.207031 85.484375 9.8125 85.023438 7.417969 C 84.945312 6.9375 84.839844 6.421875 85.191406 6.019531 C 85.476562 5.671875 86.148438 5.695312 86.320312 6.144531 Z M 86.320312 6.144531 "/>
<path style=" stroke:none;fill-rule:nonzero;fill:rgb(90.196078%,4.705882%,4.705882%);fill-opacity:1;" d="M 99.484375 5.816406 C 100.363281 5.710938 101.28125 5.84375 102.035156 6.332031 C 102.738281 6.785156 103.21875 7.472656 103.515625 8.246094 C 103.929688 9.324219 104.015625 10.554688 103.941406 11.699219 C 103.859375 12.785156 103.601562 13.894531 102.953125 14.789062 C 102.484375 15.453125 101.78125 15.9375 100.988281 16.117188 C 99.988281 16.335938 98.890625 16.21875 98.035156 15.628906 C 97.265625 15.113281 96.789062 14.316406 96.507812 13.449219 C 96.160156 12.347656 96.085938 11.144531 96.199219 10 C 96.308594 8.949219 96.621094 7.859375 97.296875 7.03125 C 97.84375 6.355469 98.621094 5.921875 99.484375 5.816406 Z M 99.484375 5.816406 "/>
<path style=" stroke:none;fill-rule:nonzero;fill:rgb(90.196078%,4.705882%,4.705882%);fill-opacity:1;" d="M 115.261719 6 C 115.542969 6.289062 115.5625 6.71875 115.570312 7.101562 C 115.570312 8.246094 115.566406 9.390625 115.570312 10.535156 C 116.578125 9.199219 117.578125 7.859375 118.585938 6.523438 C 118.757812 6.304688 118.925781 6.050781 119.148438 5.882812 C 119.472656 5.679688 119.945312 5.78125 120.148438 6.113281 C 120.445312 6.570312 120.316406 7.125 119.988281 7.527344 C 119.335938 8.328125 118.664062 9.121094 118.003906 9.917969 C 118.761719 11.304688 119.527344 12.683594 120.289062 14.070312 C 120.519531 14.511719 120.773438 14.992188 120.714844 15.503906 C 120.664062 15.894531 120.375 16.21875 119.960938 16.21875 C 119.527344 16.246094 119.230469 15.972656 119.046875 15.613281 C 118.34375 14.175781 117.589844 12.761719 116.863281 11.339844 C 116.429688 11.859375 115.996094 12.382812 115.570312 12.90625 C 115.5625 13.671875 115.585938 14.4375 115.554688 15.199219 C 115.53125 15.613281 115.382812 16.046875 114.953125 16.191406 C 114.515625 16.324219 114.105469 16 113.992188 15.585938 C 113.914062 15.269531 113.925781 14.925781 113.921875 14.601562 C 113.917969 12.101562 113.917969 9.597656 113.917969 7.101562 C 113.929688 6.734375 113.941406 6.320312 114.1875 6.027344 C 114.453125 5.703125 114.980469 5.699219 115.261719 6 Z M 115.261719 6 "/>
<path style=" stroke:none;fill-rule:nonzero;fill:rgb(13.333333%,13.333333%,14.117647%);fill-opacity:1;" d="M 14.585938 5.953125 C 16.035156 6.742188 17.476562 7.546875 18.929688 8.324219 C 19.085938 8.5 19.027344 8.683594 19.035156 8.898438 C 19.019531 10.363281 19.054688 11.828125 19.019531 13.289062 C 17.53125 14.082031 16.0625 14.910156 14.578125 15.710938 C 13.097656 14.898438 11.613281 14.089844 10.132812 13.273438 C 10.132812 11.644531 10.136719 10.015625 10.132812 8.386719 C 11.617188 7.578125 13.097656 6.75 14.585938 5.953125 Z M 14.585938 5.953125 "/>
<path style=" stroke:none;fill-rule:nonzero;fill:rgb(90.196078%,4.705882%,4.705882%);fill-opacity:1;" d="M 45.085938 5.980469 C 45.417969 5.984375 45.796875 5.953125 46.109375 6.070312 C 46.4375 6.210938 46.496094 6.597656 46.578125 6.902344 C 47.007812 8.824219 47.382812 10.757812 47.820312 12.679688 C 48.203125 10.851562 48.585938 9.023438 48.976562 7.199219 C 49.050781 6.894531 49.101562 6.550781 49.261719 6.28125 C 49.464844 5.972656 49.859375 5.996094 50.183594 5.980469 C 50.574219 5.984375 51.0625 5.933594 51.378906 6.207031 C 51.652344 6.441406 51.65625 6.867188 51.664062 7.199219 C 51.667969 9.765625 51.664062 12.335938 51.664062 14.898438 C 51.660156 15.269531 51.652344 15.714844 51.390625 16.007812 C 51.152344 16.273438 50.703125 16.296875 50.449219 16.035156 C 50.195312 15.78125 50.160156 15.441406 50.148438 15.101562 C 50.136719 12.867188 50.160156 10.628906 50.136719 8.394531 C 49.664062 10.625 49.25 12.867188 48.789062 15.101562 C 48.707031 15.484375 48.605469 15.847656 48.277344 16.09375 C 47.953125 16.292969 47.480469 16.261719 47.21875 15.964844 C 46.960938 15.695312 46.871094 15.253906 46.792969 14.902344 C 46.402344 12.96875 46.027344 11.035156 45.636719 9.101562 C 45.589844 8.859375 45.558594 8.617188 45.527344 8.375 C 45.5 8.617188 45.476562 8.855469 45.476562 9.101562 C 45.480469 11.066406 45.476562 13.035156 45.480469 15 C 45.476562 15.339844 45.445312 15.757812 45.199219 16.015625 C 44.957031 16.28125 44.507812 16.289062 44.257812 16.03125 C 43.984375 15.757812 43.972656 15.363281 43.960938 15 C 43.960938 12.398438 43.960938 9.800781 43.960938 7.199219 C 43.96875 6.894531 43.96875 6.535156 44.167969 6.285156 C 44.410156 6.015625 44.746094 5.984375 45.085938 5.980469 Z M 45.085938 5.980469 "/>
<path style=" stroke:none;fill-rule:nonzero;fill:rgb(90.196078%,4.705882%,4.705882%);fill-opacity:1;" d="M 71.777344 5.980469 C 73.144531 5.980469 74.507812 5.980469 75.875 5.980469 C 76.132812 5.988281 76.390625 5.992188 76.570312 6.199219 C 76.816406 6.480469 76.8125 7.019531 76.570312 7.296875 C 76.390625 7.507812 76.132812 7.511719 75.875 7.519531 C 74.707031 7.519531 73.542969 7.519531 72.378906 7.519531 C 72.375 8.339844 72.375 9.160156 72.378906 9.980469 C 73.445312 9.980469 74.511719 9.980469 75.574219 9.980469 C 75.835938 9.988281 76.089844 9.988281 76.269531 10.203125 C 76.5 10.484375 76.496094 11.011719 76.265625 11.289062 C 76.085938 11.511719 75.839844 11.511719 75.574219 11.519531 C 74.511719 11.519531 73.445312 11.519531 72.378906 11.519531 C 72.375 12.472656 72.375 13.425781 72.378906 14.382812 C 73.578125 14.378906 74.777344 14.382812 75.976562 14.378906 C 76.265625 14.382812 76.535156 14.394531 76.722656 14.648438 C 76.949219 14.96875 76.945312 15.507812 76.679688 15.804688 C 76.488281 16.011719 76.238281 16.011719 75.976562 16.019531 C 74.574219 16.019531 73.175781 16.019531 71.777344 16.019531 C 71.464844 16.015625 71.164062 15.976562 70.957031 15.71875 C 70.746094 15.449219 70.730469 15.03125 70.722656 14.703125 C 70.71875 12.234375 70.722656 9.765625 70.722656 7.296875 C 70.726562 6.964844 70.746094 6.554688 70.957031 6.28125 C 71.164062 6.023438 71.464844 5.984375 71.777344 5.980469 Z M 71.777344 5.980469 "/>
<path style=" stroke:none;fill-rule:nonzero;fill:rgb(90.196078%,4.705882%,4.705882%);fill-opacity:1;" d="M 78.574219 5.980469 C 80.207031 5.980469 81.839844 5.980469 83.472656 5.980469 C 83.734375 5.988281 83.992188 5.988281 84.191406 6.179688 C 84.46875 6.449219 84.503906 6.945312 84.355469 7.285156 C 84.234375 7.570312 83.976562 7.707031 83.675781 7.710938 C 83.070312 7.730469 82.464844 7.710938 81.863281 7.71875 C 81.859375 10.113281 81.859375 12.507812 81.863281 14.898438 C 81.859375 15.269531 81.835938 15.710938 81.566406 15.992188 C 81.308594 16.285156 80.828125 16.296875 80.550781 16.023438 C 80.25 15.734375 80.226562 15.292969 80.21875 14.902344 C 80.214844 12.507812 80.21875 10.113281 80.214844 7.71875 C 79.636719 7.714844 79.054688 7.726562 78.472656 7.714844 C 78.195312 7.714844 77.9375 7.636719 77.785156 7.386719 C 77.597656 7.0625 77.601562 6.558594 77.832031 6.257812 C 78.019531 6.015625 78.285156 5.984375 78.574219 5.980469 Z M 78.574219 5.980469 "/>
<path style=" stroke:none;fill-rule:nonzero;fill:rgb(90.196078%,4.705882%,4.705882%);fill-opacity:1;" d="M 106.765625 5.980469 C 107.632812 5.984375 108.496094 5.976562 109.363281 5.984375 C 109.929688 6 110.449219 6.011719 110.941406 6.320312 C 111.664062 6.761719 112.023438 7.582031 112.09375 8.398438 C 112.152344 9.148438 112.046875 9.996094 111.558594 10.597656 C 111.191406 11.054688 110.691406 11.296875 110.148438 11.476562 C 110.855469 12.085938 111.285156 12.855469 111.679688 13.683594 C 111.902344 14.171875 112.113281 14.679688 112.226562 15.199219 C 112.339844 15.683594 111.984375 16.226562 111.464844 16.21875 C 111.058594 16.226562 110.828125 15.933594 110.652344 15.609375 C 110.289062 14.898438 109.964844 14.167969 109.617188 13.445312 C 109.371094 12.949219 109.105469 12.351562 108.675781 11.984375 C 108.28125 11.652344 107.734375 11.726562 107.253906 11.71875 C 107.25 12.777344 107.257812 13.839844 107.25 14.898438 C 107.242188 15.269531 107.222656 15.707031 106.957031 15.992188 C 106.679688 16.300781 106.152344 16.296875 105.882812 15.984375 C 105.628906 15.695312 105.605469 15.265625 105.601562 14.902344 C 105.605469 12.367188 105.605469 9.832031 105.601562 7.300781 C 105.605469 6.945312 105.625 6.492188 105.886719 6.222656 C 106.136719 5.984375 106.441406 5.984375 106.765625 5.980469 Z M 106.765625 5.980469 "/>
<path style=" stroke:none;fill-rule:nonzero;fill:rgb(96.078431%,45.490196%,38.039216%);fill-opacity:1;" d="M 8.539062 7.464844 C 9.027344 7.832031 9.609375 8.070312 10.132812 8.386719 C 10.136719 10.015625 10.132812 11.644531 10.132812 13.273438 C 11.613281 14.089844 13.097656 14.898438 14.578125 15.710938 C 14.582031 16.207031 14.558594 16.707031 14.582031 17.199219 C 14.582031 17.308594 14.609375 17.394531 14.667969 17.457031 L 14.589844 17.496094 C 14.363281 17.410156 14.152344 17.273438 13.9375 17.160156 C 12.171875 16.191406 10.40625 15.222656 8.640625 14.253906 C 8.46875 14.179688 8.492188 14.066406 8.480469 13.902344 C 8.484375 11.867188 8.484375 9.832031 8.480469 7.796875 C 8.496094 7.703125 8.457031 7.53125 8.539062 7.464844 Z M 8.539062 7.464844 "/>
<path style=" stroke:none;fill-rule:nonzero;fill:rgb ( 255,  255,  255 );fill-opacity:1;" d="M 38.039062 7.46875 C 38.675781 7.320312 39.347656 7.515625 39.800781 7.984375 C 40.339844 8.523438 40.578125 9.363281 40.664062 10.101562 C 40.753906 10.964844 40.734375 11.878906 40.496094 12.71875 C 40.316406 13.320312 40.007812 13.929688 39.464844 14.28125 C 38.925781 14.644531 38.195312 14.679688 37.621094 14.367188 C 37.15625 14.121094 36.820312 13.644531 36.617188 13.171875 C 36.300781 12.40625 36.21875 11.519531 36.242188 10.699219 C 36.269531 9.953125 36.40625 9.144531 36.769531 8.484375 C 37.042969 7.988281 37.476562 7.597656 38.039062 7.46875 Z M 38.039062 7.46875 "/>
<path style=" stroke:none;fill-rule:nonzero;fill:rgb ( 255,  255,  255 );fill-opacity:1;" d="M 99.617188 7.46875 C 100.253906 7.320312 100.925781 7.515625 101.382812 7.984375 C 101.917969 8.527344 102.15625 9.363281 102.246094 10.101562 C 102.332031 10.964844 102.316406 11.878906 102.078125 12.71875 C 101.898438 13.320312 101.589844 13.929688 101.046875 14.28125 C 100.503906 14.644531 99.773438 14.679688 99.203125 14.367188 C 98.738281 14.121094 98.398438 13.644531 98.199219 13.171875 C 97.894531 12.4375 97.804688 11.589844 97.820312 10.800781 C 97.835938 10.042969 97.964844 9.226562 98.316406 8.546875 C 98.589844 8.023438 99.03125 7.605469 99.617188 7.46875 Z M 99.617188 7.46875 "/>
<path style=" stroke:none;fill-rule:nonzero;fill:rgb(74.901961%,10.588235%,17.254902%);fill-opacity:1;" d="M 20.648438 7.480469 C 20.679688 9.703125 20.65625 11.941406 20.660156 14.167969 C 18.710938 15.242188 16.621094 16.386719 14.667969 17.457031 C 14.609375 17.394531 14.582031 17.308594 14.582031 17.199219 C 14.558594 16.707031 14.582031 16.207031 14.578125 15.710938 C 16.0625 14.910156 17.53125 14.082031 19.019531 13.289062 C 19.054688 11.828125 19.019531 10.363281 19.035156 8.898438 C 19.027344 8.683594 19.085938 8.5 18.929688 8.324219 C 19.074219 8.320312 19.203125 8.304688 19.332031 8.234375 C 19.78125 8.003906 20.21875 7.746094 20.648438 7.480469 Z M 20.648438 7.480469 "/>
<path style=" stroke:none;fill-rule:nonzero;fill:rgb ( 255,  255,  255 );fill-opacity:1;" d="M 107.253906 7.519531 C 107.988281 7.535156 108.738281 7.476562 109.464844 7.570312 C 110.007812 7.628906 110.34375 8.089844 110.417969 8.601562 C 110.472656 9.011719 110.433594 9.546875 110.125 9.859375 C 109.824219 10.167969 109.351562 10.242188 108.945312 10.269531 C 108.382812 10.292969 107.816406 10.277344 107.253906 10.28125 C 107.253906 9.359375 107.253906 8.441406 107.253906 7.519531 Z M 107.253906 7.519531 "/>
<path style=" stroke:none;fill-rule:nonzero;fill:rgb(100%,22.745098%,29.411765%);fill-opacity:1;" d="M 14.789062 7.902344 C 14.574219 8.0625 14.613281 8.261719 14.582031 8.503906 C 14.5625 8.816406 14.488281 9.121094 14.40625 9.425781 C 14.199219 9.371094 13.992188 9.308594 13.792969 9.234375 C 13.933594 8.808594 14 8.429688 13.992188 7.976562 C 14.253906 7.917969 14.519531 7.90625 14.789062 7.902344 Z M 14.789062 7.902344 "/>
<path style=" stroke:none;fill-rule:nonzero;fill:rgb(100%,25.490196%,37.254902%);fill-opacity:1;" d="M 14.789062 7.902344 C 14.96875 7.902344 15.148438 7.914062 15.328125 7.929688 C 15.339844 8.441406 15.191406 8.964844 15.113281 9.46875 C 14.875 9.480469 14.644531 9.46875 14.40625 9.425781 C 14.488281 9.121094 14.5625 8.816406 14.582031 8.503906 C 14.613281 8.261719 14.574219 8.0625 14.789062 7.902344 Z M 14.789062 7.902344 "/>
<path style=" stroke:none;fill-rule:nonzero;fill:rgb(100%,20%,21.568627%);fill-opacity:1;" d="M 13.992188 7.976562 C 14 8.429688 13.933594 8.808594 13.792969 9.234375 C 13.492188 9.097656 13.085938 8.785156 13.113281 8.421875 C 13.332031 8.1875 13.695312 8.070312 13.992188 7.976562 Z M 13.992188 7.976562 "/>
<path style=" stroke:none;fill-rule:nonzero;fill:rgb(100%,28.627451%,45.882353%);fill-opacity:1;" d="M 15.328125 7.929688 C 16.050781 8.089844 16.824219 8.5 17.242188 9.121094 L 17.144531 9.179688 C 16.820312 8.90625 16.546875 8.644531 16.101562 8.628906 C 16 8.648438 15.898438 8.671875 15.800781 8.699219 C 15.75 8.757812 15.695312 8.8125 15.644531 8.871094 C 15.757812 8.980469 15.867188 9.09375 15.972656 9.210938 C 15.710938 9.390625 15.417969 9.417969 15.113281 9.46875 C 15.191406 8.964844 15.339844 8.441406 15.328125 7.929688 Z M 15.328125 7.929688 "/>
<path style=" stroke:none;fill-rule:nonzero;fill:rgb ( 255,  255,  255 );fill-opacity:1;" d="M 56.738281 8.0625 C 57.136719 9.398438 57.507812 10.742188 57.890625 12.082031 C 57.117188 12.082031 56.347656 12.082031 55.574219 12.082031 C 55.890625 10.933594 56.214844 9.792969 56.53125 8.648438 C 56.589844 8.445312 56.621094 8.242188 56.738281 8.0625 Z M 56.738281 8.0625 "/>
<path style=" stroke:none;fill-rule:nonzero;fill:rgb(99.607843%,57.254902%,83.529412%);fill-opacity:1;" d="M 12.90625 8.453125 C 13.160156 8.601562 12.941406 9.03125 12.867188 9.246094 C 12.6875 9.058594 12.519531 8.859375 12.351562 8.660156 C 12.527344 8.554688 12.695312 8.457031 12.90625 8.453125 Z M 12.90625 8.453125 "/>
<path style=" stroke:none;fill-rule:nonzero;fill:rgb(99.215686%,86.666667%,94.509804%);fill-opacity:1;" d="M 16.101562 8.628906 C 16.546875 8.644531 16.820312 8.90625 17.144531 9.179688 C 16.898438 9.34375 16.621094 9.417969 16.34375 9.515625 C 16.15625 9.246094 15.976562 8.976562 15.800781 8.699219 C 15.898438 8.671875 16 8.648438 16.101562 8.628906 Z M 16.101562 8.628906 "/>
<path style=" stroke:none;fill-rule:nonzero;fill:rgb(91.764706%,38.039216%,61.176471%);fill-opacity:1;" d="M 12.3125 8.6875 C 12.195312 8.84375 12.074219 9.003906 11.964844 9.167969 C 11.769531 9.53125 11.742188 9.917969 11.746094 10.324219 L 11.679688 10.238281 L 11.671875 10.226562 C 11.617188 10.394531 11.5625 10.523438 11.4375 10.652344 C 11.441406 9.898438 11.660156 9.128906 12.3125 8.6875 Z M 12.3125 8.6875 "/>
<path style=" stroke:none;fill-rule:nonzero;fill:rgb(99.215686%,69.019608%,87.45098%);fill-opacity:1;" d="M 12.3125 8.6875 L 12.351562 8.660156 C 12.519531 8.859375 12.6875 9.058594 12.867188 9.246094 C 12.78125 9.441406 12.683594 9.632812 12.578125 9.820312 C 12.339844 9.628906 12.148438 9.414062 11.964844 9.167969 C 12.074219 9.003906 12.195312 8.84375 12.3125 8.6875 Z M 12.3125 8.6875 "/>
<path style=" stroke:none;fill-rule:nonzero;fill:rgb(99.215686%,71.372549%,88.235294%);fill-opacity:1;" d="M 17.242188 9.121094 C 17.296875 9.207031 17.34375 9.292969 17.386719 9.382812 C 17.378906 9.535156 17.367188 9.683594 17.355469 9.835938 C 17.144531 9.894531 16.9375 9.957031 16.734375 10.027344 C 16.597656 9.863281 16.46875 9.6875 16.34375 9.515625 C 16.621094 9.417969 16.898438 9.34375 17.144531 9.179688 Z M 17.242188 9.121094 "/>
<path style=" stroke:none;fill-rule:nonzero;fill:rgb(99.215686%,85.098039%,93.72549%);fill-opacity:1;" d="M 11.964844 9.167969 C 12.148438 9.414062 12.339844 9.628906 12.578125 9.820312 C 12.414062 10.121094 12.234375 10.421875 12.054688 10.714844 C 11.910156 10.613281 11.835938 10.472656 11.746094 10.324219 C 11.742188 9.917969 11.769531 9.53125 11.964844 9.167969 Z M 11.964844 9.167969 "/>
<path style=" stroke:none;fill-rule:nonzero;fill:rgb(99.607843%,58.823529%,83.921569%);fill-opacity:1;" d="M 17.386719 9.382812 C 17.546875 9.667969 17.671875 10.195312 17.476562 10.480469 C 17.164062 10.585938 16.921875 10.21875 16.734375 10.027344 C 16.9375 9.957031 17.144531 9.894531 17.355469 9.835938 C 17.367188 9.683594 17.378906 9.535156 17.386719 9.382812 Z M 17.386719 9.382812 "/>
<path style=" stroke:none;fill-rule:nonzero;fill:rgb(74.117647%,27.843137%,58.039216%);fill-opacity:1;" d="M 14.042969 10.058594 C 14.40625 9.8125 15.054688 9.882812 15.3125 10.261719 C 15.507812 10.488281 15.496094 10.855469 15.421875 11.128906 C 15.25 11.417969 14.949219 11.664062 14.59375 11.648438 C 14.125 11.683594 13.632812 11.285156 13.644531 10.800781 C 13.625 10.484375 13.804688 10.238281 14.042969 10.058594 Z M 14.042969 10.058594 "/>
<path style=" stroke:none;fill-rule:nonzero;fill:rgb(98.431373%,46.666667%,78.039216%);fill-opacity:1;" d="M 14.5 10.085938 C 14.835938 10.109375 15.109375 10.226562 15.253906 10.546875 C 15.398438 10.78125 15.308594 10.941406 15.160156 11.132812 C 15.144531 10.917969 15.125 10.699219 15.097656 10.484375 C 14.925781 10.542969 14.753906 10.605469 14.582031 10.652344 C 14.421875 10.636719 14.261719 10.554688 14.113281 10.5 C 14.109375 10.6875 14.109375 10.871094 14.113281 11.058594 C 14.257812 11.171875 14.371094 11.285156 14.472656 11.441406 C 14.011719 11.410156 13.824219 10.996094 13.824219 10.585938 C 14.027344 10.355469 14.183594 10.140625 14.5 10.085938 Z M 14.5 10.085938 "/>
<path style=" stroke:none;fill-rule:nonzero;fill:rgb(100%,26.666667%,40.392157%);fill-opacity:1;" d="M 11.671875 10.226562 L 11.679688 10.238281 L 11.746094 10.324219 C 11.835938 10.472656 11.910156 10.613281 12.054688 10.714844 C 12.125 10.738281 12.195312 10.757812 12.269531 10.78125 C 12.320312 10.609375 12.378906 10.460938 12.488281 10.316406 C 12.914062 10.652344 13.257812 11.0625 13.398438 11.597656 C 12.90625 11.726562 12.3125 11.851562 11.925781 12.199219 C 11.605469 11.734375 11.4375 11.222656 11.4375 10.652344 C 11.5625 10.523438 11.617188 10.394531 11.671875 10.226562 Z M 11.671875 10.226562 "/>
<path style=" stroke:none;fill-rule:nonzero;fill:rgb(100%,79.215686%,91.764706%);fill-opacity:1;" d="M 14.507812 10.3125 L 14.585938 10.273438 L 14.660156 10.3125 L 14.664062 10.390625 L 14.585938 10.429688 L 14.511719 10.390625 Z M 14.507812 10.3125 "/>
<path style=" stroke:none;fill-rule:nonzero;fill:rgb(100%,84.705882%,94.117647%);fill-opacity:1;" d="M 14.113281 10.5 C 14.261719 10.554688 14.421875 10.636719 14.582031 10.652344 C 14.753906 10.605469 14.925781 10.542969 15.097656 10.484375 C 15.125 10.699219 15.144531 10.917969 15.160156 11.132812 C 14.953125 11.34375 14.765625 11.40625 14.472656 11.441406 C 14.371094 11.285156 14.257812 11.171875 14.113281 11.058594 C 14.109375 10.871094 14.109375 10.6875 14.113281 10.5 Z M 14.113281 10.5 "/>
<path style=" stroke:none;fill-rule:nonzero;fill:rgb(100%,47.843137%,79.607843%);fill-opacity:1;" d="M 14.285156 10.585938 C 14.4375 10.769531 14.503906 10.914062 14.542969 11.152344 C 14.414062 11.148438 14.292969 11.097656 14.179688 10.996094 C 14.140625 10.808594 14.175781 10.671875 14.285156 10.585938 Z M 14.285156 10.585938 "/>
<path style=" stroke:none;fill-rule:nonzero;fill:rgb(100%,61.960784%,85.098039%);fill-opacity:1;" d="M 14.898438 10.617188 C 15.117188 10.828125 14.867188 11.199219 14.589844 11.132812 C 14.652344 10.914062 14.71875 10.769531 14.898438 10.617188 Z M 14.898438 10.617188 "/>
<path style=" stroke:none;fill-rule:nonzero;fill:rgb(100%,20.784314%,23.529412%);fill-opacity:1;" d="M 17.09375 10.710938 C 17.238281 10.730469 17.375 10.679688 17.433594 10.84375 C 17.515625 11.261719 17.410156 11.6875 17.25 12.074219 C 16.808594 11.820312 16.417969 11.5 16.027344 11.179688 C 16.347656 10.914062 16.660156 10.695312 17.09375 10.710938 Z M 17.09375 10.710938 "/>
<path style=" stroke:none;fill-rule:nonzero;fill:rgb(100%,25.490196%,36.862745%);fill-opacity:1;" d="M 16.027344 11.179688 C 16.417969 11.5 16.808594 11.820312 17.25 12.074219 C 17.09375 12.410156 16.886719 12.703125 16.625 12.964844 C 16.128906 12.765625 15.824219 12.394531 15.382812 12.066406 C 15.515625 11.710938 15.742188 11.425781 16.027344 11.179688 Z M 16.027344 11.179688 "/>
<path style=" stroke:none;fill-rule:nonzero;fill:rgb(100%,22.352941%,28.627451%);fill-opacity:1;" d="M 13.398438 11.597656 C 13.4375 11.734375 13.460938 11.871094 13.484375 12.011719 C 13.183594 12.371094 12.691406 12.335938 12.3125 12.628906 C 12.171875 12.496094 12.042969 12.351562 11.925781 12.199219 C 12.3125 11.851562 12.90625 11.726562 13.398438 11.597656 Z M 13.398438 11.597656 "/>
<path style=" stroke:none;fill-rule:nonzero;fill:rgb(100%,19.607843%,20.784314%);fill-opacity:1;" d="M 13.484375 12.011719 C 13.503906 12.390625 13.476562 12.90625 13.085938 13.089844 C 12.796875 13.050781 12.523438 12.816406 12.3125 12.628906 C 12.691406 12.335938 13.183594 12.371094 13.484375 12.011719 Z M 13.484375 12.011719 "/>
<path style=" stroke:none;fill-rule:nonzero;fill:rgb(100%,29.411765%,48.235294%);fill-opacity:1;" d="M 15.382812 12.066406 C 15.824219 12.394531 16.128906 12.765625 16.625 12.964844 C 16.148438 13.371094 15.515625 13.730469 14.882812 13.773438 L 14.816406 13.667969 C 15.265625 13.519531 15.695312 13.359375 15.804688 12.839844 C 15.777344 12.765625 15.753906 12.691406 15.726562 12.617188 C 15.574219 12.65625 15.417969 12.699219 15.265625 12.738281 C 15.207031 12.492188 15.296875 12.289062 15.382812 12.066406 Z M 15.382812 12.066406 "/>
<path style=" stroke:none;fill-rule:nonzero;fill:rgb(99.215686%,70.980392%,88.235294%);fill-opacity:1;" d="M 14.730469 12.871094 C 14.703125 13.09375 14.671875 13.3125 14.636719 13.535156 C 14.695312 13.578125 14.757812 13.621094 14.816406 13.667969 L 14.882812 13.773438 C 14.511719 13.789062 14.160156 13.796875 13.804688 13.667969 C 13.894531 13.527344 14.054688 13.359375 14.050781 13.183594 C 14.007812 13.105469 13.957031 13.027344 13.90625 12.957031 C 14.179688 12.921875 14.453125 12.890625 14.730469 12.871094 Z M 14.730469 12.871094 "/>
<path style=" stroke:none;fill-rule:nonzero;fill:rgb(99.215686%,85.490196%,93.72549%);fill-opacity:1;" d="M 14.730469 12.871094 C 15.089844 12.855469 15.445312 12.851562 15.804688 12.839844 C 15.695312 13.359375 15.265625 13.519531 14.816406 13.667969 C 14.757812 13.621094 14.695312 13.578125 14.636719 13.535156 C 14.671875 13.3125 14.703125 13.09375 14.730469 12.871094 Z M 14.730469 12.871094 "/>
<path style=" stroke:none;fill-rule:nonzero;fill:rgb(99.215686%,58.039216%,83.529412%);fill-opacity:1;" d="M 13.90625 12.957031 C 13.957031 13.027344 14.007812 13.105469 14.050781 13.183594 C 14.054688 13.359375 13.894531 13.527344 13.804688 13.667969 C 13.617188 13.570312 13.441406 13.503906 13.328125 13.308594 C 13.308594 13.0625 13.730469 13 13.90625 12.957031 Z M 13.90625 12.957031 "/>
<path style=" stroke:none;fill-rule:nonzero;fill:rgb(65.882353%,9.019608%,11.372549%);fill-opacity:1;" d="M 21.984375 15.351562 C 22.257812 16.027344 21.9375 16.894531 22.183594 17.566406 C 21.53125 18.273438 20.730469 18.851562 19.902344 19.335938 L 19.714844 19.265625 C 19.644531 18.710938 19.773438 18.222656 19.613281 17.683594 C 20.152344 17.320312 20.648438 16.902344 21.09375 16.425781 C 21.429688 16.105469 21.714844 15.734375 21.984375 15.351562 Z M 21.984375 15.351562 "/>
<path style=" stroke:none;fill-rule:nonzero;fill:rgb(85.490196%,11.764706%,14.509804%);fill-opacity:1;" d="M 7.660156 15.96875 C 8.59375 17.101562 9.808594 17.96875 11.167969 18.519531 C 11.285156 19.058594 11.152344 19.582031 11.367188 20.09375 C 11.136719 20.066406 10.90625 20.042969 10.675781 20.015625 C 9.527344 19.566406 8.417969 18.910156 7.511719 18.070312 C 7.667969 17.75 7.539062 17.492188 7.453125 17.175781 C 7.488281 17.085938 7.527344 16.992188 7.5625 16.902344 C 7.523438 16.835938 7.480469 16.769531 7.441406 16.703125 C 7.480469 16.570312 7.527344 16.472656 7.492188 16.335938 C 7.546875 16.210938 7.605469 16.089844 7.660156 15.96875 Z M 7.660156 15.96875 "/>
<path style=" stroke:none;fill-rule:nonzero;fill:rgb(69.803922%,9.803922%,11.764706%);fill-opacity:1;" d="M 19.613281 17.683594 C 19.773438 18.222656 19.644531 18.710938 19.714844 19.265625 L 19.902344 19.335938 C 19.449219 19.609375 19 19.859375 18.484375 19.992188 C 18.171875 20.082031 17.859375 20.160156 17.539062 20.21875 C 17.554688 19.703125 17.640625 19.1875 17.621094 18.675781 C 18.324219 18.425781 18.988281 18.089844 19.613281 17.683594 Z M 19.613281 17.683594 "/>
<path style=" stroke:none;fill-rule:nonzero;fill:rgb(76.862745%,10.588235%,12.941176%);fill-opacity:1;" d="M 11.167969 18.519531 C 12.832031 19.183594 14.6875 19.347656 16.441406 18.972656 C 16.851562 18.933594 17.230469 18.800781 17.621094 18.675781 C 17.640625 19.1875 17.554688 19.703125 17.539062 20.21875 C 17.859375 20.160156 18.171875 20.082031 18.484375 19.992188 C 18.527344 20.066406 18.574219 20.136719 18.621094 20.210938 C 16.089844 21.1875 13.210938 21.214844 10.671875 20.253906 L 10.882812 20.167969 C 10.816406 20.117188 10.746094 20.0625 10.675781 20.015625 C 10.90625 20.042969 11.136719 20.066406 11.367188 20.09375 C 11.152344 19.582031 11.285156 19.058594 11.167969 18.519531 Z M 11.167969 18.519531 "/>
</g>
</svg>
