<?xml version="1.0" encoding="UTF-8"?>
<svg xmlns="http://www.w3.org/2000/svg" xmlns:xlink="http://www.w3.org/1999/xlink" width="123px" height="22px" viewBox="0 0 123 22" version="1.1">
<g id="surface1">
<path style=" stroke:none;fill-rule:nonzero;fill:rgb(91.764706%,5.490196%,6.666667%);fill-opacity:1;" d="M 18.613281 1.472656 C 20.6875 2.269531 22.5 3.71875 23.703125 5.59375 C 24.640625 7.054688 25.183594 8.761719 25.242188 10.5 C 25.300781 12.199219 24.902344 13.910156 24.097656 15.40625 C 22.476562 18.460938 19.296875 20.511719 15.871094 20.878906 C 13.816406 21.132812 11.683594 20.773438 9.808594 19.886719 C 8.058594 19.054688 6.539062 17.742188 5.484375 16.109375 C 4.46875 14.546875 3.90625 12.667969 3.925781 10.800781 C 3.917969 9.429688 4.238281 8.050781 4.804688 6.808594 C 5.667969 4.925781 7.117188 3.351562 8.886719 2.289062 C 11.785156 0.535156 15.464844 0.246094 18.613281 1.472656 Z M 18.613281 1.472656 "/>
<path style=" stroke:none;fill-rule:nonzero;fill:;fill-opacity:1;" d="M 13.796875 2.535156 C 14.609375 2.503906 15.390625 2.492188 16.191406 2.660156 C 18.847656 3.183594 21.214844 4.90625 22.472656 7.316406 C 23.066406 8.46875 23.417969 9.796875 23.367188 11.101562 C 23.335938 12.839844 22.679688 14.546875 21.59375 15.902344 C 19.871094 18.078125 17.058594 19.304688 14.296875 19.183594 C 13.199219 19.101562 12.125 18.917969 11.109375 18.484375 C 9.253906 17.730469 7.671875 16.339844 6.734375 14.5625 C 6.085938 13.34375 5.757812 11.96875 5.835938 10.585938 C 5.773438 9.515625 6.105469 8.410156 6.542969 7.445312 C 7.847656 4.644531 10.726562 2.742188 13.796875 2.535156 Z M 13.796875 2.535156 "/>
<path style=" stroke:none;fill-rule:nonzero;fill:rgb(91.764706%,5.490196%,6.666667%);fill-opacity:1;" d="M 14.582031 4.152344 C 16.613281 5.261719 18.648438 6.378906 20.675781 7.492188 C 20.671875 9.71875 20.675781 11.945312 20.671875 14.171875 C 18.648438 15.289062 16.621094 16.398438 14.589844 17.507812 C 12.5625 16.402344 10.539062 15.285156 8.511719 14.175781 C 8.5 11.945312 8.519531 9.71875 8.5 7.488281 C 10.523438 6.363281 12.550781 5.25 14.582031 4.152344 Z M 14.582031 4.152344 "/>
<path style=" stroke:none;fill-rule:nonzero;fill:rgb(91.764706%,5.490196%,6.666667%);fill-opacity:1;" d="M 30.871094 5.851562 C 31.824219 6.035156 32.648438 6.746094 32.894531 7.699219 C 33.011719 8.152344 33.007812 8.625 32.679688 8.988281 C 32.441406 9.265625 31.949219 9.257812 31.742188 8.949219 C 31.390625 8.484375 31.316406 7.773438 30.785156 7.402344 C 30.367188 7.164062 29.78125 7.164062 29.34375 7.351562 C 28.824219 7.585938 28.523438 8.140625 28.6875 8.699219 C 28.820312 9.136719 29.242188 9.386719 29.644531 9.542969 C 30.550781 9.878906 31.609375 10.089844 32.378906 10.714844 C 33.019531 11.222656 33.285156 12 33.308594 12.800781 C 33.355469 13.820312 33.042969 14.871094 32.230469 15.539062 C 31.4375 16.191406 30.382812 16.316406 29.390625 16.15625 C 28.683594 16.035156 28.039062 15.660156 27.613281 15.074219 C 27.210938 14.519531 26.917969 13.789062 26.96875 13.097656 C 27.007812 12.710938 27.265625 12.308594 27.691406 12.308594 C 28 12.300781 28.1875 12.523438 28.3125 12.777344 C 28.539062 13.277344 28.625 13.859375 29.023438 14.269531 C 29.429688 14.714844 30.144531 14.757812 30.691406 14.589844 C 31.328125 14.386719 31.746094 13.769531 31.683594 13.097656 C 31.667969 12.566406 31.320312 12.152344 30.84375 11.945312 C 30.078125 11.617188 29.261719 11.484375 28.519531 11.074219 C 27.859375 10.738281 27.355469 10.128906 27.195312 9.398438 C 27.03125 8.644531 27.09375 7.777344 27.484375 7.097656 C 27.746094 6.636719 28.160156 6.277344 28.644531 6.066406 C 29.328125 5.761719 30.140625 5.71875 30.871094 5.851562 Z M 30.871094 5.851562 "/>
<path style=" stroke:none;fill-rule:nonzero;fill:rgb(91.764706%,5.490196%,6.666667%);fill-opacity:1;" d="M 37.632812 5.859375 C 38.601562 5.675781 39.691406 5.804688 40.515625 6.371094 C 41.210938 6.84375 41.675781 7.539062 41.964844 8.316406 C 42.355469 9.378906 42.4375 10.578125 42.359375 11.699219 C 42.277344 12.789062 42.023438 13.890625 41.375 14.789062 C 40.890625 15.472656 40.160156 15.964844 39.339844 16.132812 C 38.382812 16.324219 37.347656 16.214844 36.515625 15.671875 C 35.738281 15.171875 35.242188 14.386719 34.949219 13.523438 C 34.601562 12.46875 34.515625 11.304688 34.601562 10.199219 C 34.6875 9.148438 34.957031 8.0625 35.585938 7.199219 C 36.074219 6.515625 36.808594 6.023438 37.632812 5.859375 Z M 37.632812 5.859375 "/>
<path style=" stroke:none;fill-rule:nonzero;fill:rgb(91.764706%,5.490196%,6.666667%);fill-opacity:1;" d="M 57.480469 6.101562 C 57.792969 6.441406 57.929688 6.988281 58.066406 7.421875 C 58.800781 9.742188 59.550781 12.0625 60.289062 14.382812 C 60.382812 14.722656 60.515625 15.132812 60.445312 15.484375 C 60.351562 15.882812 60.03125 16.273438 59.578125 16.214844 C 59.269531 16.183594 59.105469 15.953125 58.992188 15.6875 C 58.726562 15.019531 58.546875 14.308594 58.339844 13.621094 C 57.269531 13.617188 56.203125 13.617188 55.136719 13.621094 C 54.90625 14.359375 54.742188 15.136719 54.433594 15.847656 C 54.285156 16.238281 53.804688 16.320312 53.480469 16.105469 C 53.257812 15.945312 53.101562 15.675781 53.070312 15.402344 C 53.039062 15.085938 53.136719 14.75 53.226562 14.445312 C 53.988281 12.003906 54.75 9.5625 55.507812 7.121094 C 55.617188 6.777344 55.738281 6.371094 55.984375 6.101562 C 56.355469 5.671875 57.109375 5.671875 57.480469 6.101562 Z M 57.480469 6.101562 "/>
<path style=" stroke:none;fill-rule:nonzero;fill:rgb(91.764706%,5.490196%,6.666667%);fill-opacity:1;" d="M 63.421875 5.957031 C 63.714844 6.222656 63.878906 6.664062 64.066406 7.011719 C 65.082031 8.945312 66.09375 10.878906 67.113281 12.808594 C 67.113281 10.871094 67.113281 8.933594 67.113281 7 C 67.125 6.664062 67.144531 6.261719 67.378906 5.996094 C 67.628906 5.699219 68.125 5.707031 68.375 6.003906 C 68.601562 6.257812 68.632812 6.667969 68.636719 6.996094 C 68.632812 9.597656 68.632812 12.199219 68.636719 14.800781 C 68.632812 15.167969 68.613281 15.601562 68.394531 15.914062 C 68.109375 16.320312 67.441406 16.304688 67.105469 15.972656 C 66.835938 15.710938 66.652344 15.332031 66.472656 15.003906 C 65.476562 13.066406 64.492188 11.121094 63.492188 9.1875 C 63.492188 11.125 63.492188 13.0625 63.492188 15 C 63.484375 15.363281 63.460938 15.742188 63.199219 16.019531 C 62.953125 16.28125 62.503906 16.289062 62.25 16.027344 C 61.964844 15.734375 61.953125 15.289062 61.945312 14.898438 C 61.949219 12.367188 61.949219 9.832031 61.949219 7.300781 C 61.960938 6.863281 61.957031 6.429688 62.269531 6.089844 C 62.554688 5.753906 63.074219 5.660156 63.421875 5.957031 Z M 63.421875 5.957031 "/>
<path style=" stroke:none;fill-rule:nonzero;fill:rgb(91.764706%,5.490196%,6.666667%);fill-opacity:1;" d="M 85.484375 5.816406 C 85.777344 5.734375 86.140625 5.789062 86.292969 6.082031 C 86.460938 6.425781 86.527344 6.832031 86.597656 7.203125 C 86.9375 9.097656 87.265625 10.992188 87.617188 12.886719 C 88.003906 11.039062 88.40625 9.195312 88.800781 7.347656 C 88.902344 6.933594 88.972656 6.425781 89.265625 6.09375 C 89.519531 5.761719 90.03125 5.707031 90.394531 5.863281 C 90.789062 6.066406 90.9375 6.511719 91.03125 6.917969 C 91.476562 8.90625 91.890625 10.898438 92.328125 12.890625 C 92.683594 10.886719 93.042969 8.882812 93.402344 6.878906 C 93.472656 6.535156 93.527344 6.175781 93.796875 5.921875 C 94.101562 5.679688 94.574219 5.757812 94.796875 6.074219 C 95.109375 6.484375 94.980469 7.011719 94.90625 7.480469 C 94.449219 9.855469 93.984375 12.230469 93.515625 14.601562 C 93.417969 15.023438 93.359375 15.566406 93.082031 15.910156 C 92.789062 16.324219 92.050781 16.320312 91.746094 15.921875 C 91.488281 15.636719 91.425781 15.214844 91.335938 14.851562 C 90.871094 12.75 90.445312 10.636719 89.980469 8.535156 C 89.5 10.652344 89.070312 12.785156 88.59375 14.90625 C 88.503906 15.265625 88.441406 15.628906 88.191406 15.921875 C 87.882812 16.324219 87.160156 16.324219 86.859375 15.910156 C 86.609375 15.582031 86.527344 15.09375 86.441406 14.699219 C 85.988281 12.394531 85.542969 10.085938 85.089844 7.78125 C 85.019531 7.398438 84.921875 6.984375 84.949219 6.597656 C 84.976562 6.269531 85.167969 5.933594 85.484375 5.816406 Z M 85.484375 5.816406 "/>
<path style=" stroke:none;fill-rule:nonzero;fill:rgb(91.764706%,5.490196%,6.666667%);fill-opacity:1;" d="M 99.488281 5.8125 C 100.367188 5.710938 101.277344 5.839844 102.035156 6.332031 C 102.738281 6.785156 103.21875 7.472656 103.515625 8.246094 C 103.929688 9.324219 104.019531 10.554688 103.941406 11.699219 C 103.859375 12.789062 103.601562 13.890625 102.953125 14.789062 C 102.46875 15.472656 101.742188 15.964844 100.917969 16.132812 C 99.960938 16.324219 98.925781 16.214844 98.097656 15.671875 C 97.316406 15.171875 96.824219 14.386719 96.53125 13.523438 C 96.167969 12.4375 96.089844 11.234375 96.1875 10.101562 C 96.292969 9.015625 96.597656 7.890625 97.296875 7.027344 C 97.839844 6.355469 98.625 5.917969 99.488281 5.8125 Z M 99.488281 5.8125 "/>
<path style=" stroke:none;fill-rule:nonzero;fill:rgb(91.764706%,5.490196%,6.666667%);fill-opacity:1;" d="M 115.261719 6 C 115.542969 6.289062 115.5625 6.71875 115.570312 7.101562 C 115.570312 8.246094 115.566406 9.390625 115.570312 10.535156 C 116.621094 9.140625 117.664062 7.746094 118.714844 6.351562 C 118.855469 6.175781 119.007812 5.960938 119.207031 5.847656 C 119.539062 5.699219 119.949219 5.796875 120.148438 6.113281 C 120.445312 6.570312 120.316406 7.125 119.992188 7.527344 C 119.335938 8.328125 118.664062 9.121094 118.003906 9.917969 C 118.800781 11.371094 119.609375 12.820312 120.398438 14.277344 C 120.632812 14.734375 120.882812 15.355469 120.601562 15.84375 C 120.351562 16.3125 119.640625 16.332031 119.296875 15.964844 C 119.035156 15.691406 118.894531 15.277344 118.71875 14.941406 C 118.101562 13.742188 117.484375 12.539062 116.863281 11.339844 C 116.429688 11.859375 116 12.382812 115.570312 12.90625 C 115.5625 13.636719 115.578125 14.371094 115.5625 15.101562 C 115.546875 15.523438 115.445312 15.96875 115.027344 16.164062 C 114.597656 16.347656 114.160156 16.066406 114.011719 15.65625 C 113.910156 15.324219 113.929688 14.945312 113.917969 14.601562 C 113.917969 12.101562 113.917969 9.601562 113.917969 7.101562 C 113.929688 6.734375 113.941406 6.324219 114.1875 6.027344 C 114.453125 5.703125 114.980469 5.695312 115.261719 6 Z M 115.261719 6 "/>
<path style=" stroke:none;fill-rule:nonzero;fill:;fill-opacity:1;" d="M 14.585938 5.953125 C 16.066406 6.761719 17.550781 7.578125 19.03125 8.386719 C 19.03125 10.019531 19.039062 11.652344 19.027344 13.285156 C 17.546875 14.089844 16.074219 14.90625 14.589844 15.710938 C 13.101562 14.90625 11.617188 14.089844 10.132812 13.273438 C 10.132812 11.640625 10.128906 10.011719 10.136719 8.382812 C 11.621094 7.578125 13.09375 6.746094 14.585938 5.953125 Z M 14.585938 5.953125 "/>
<path style=" stroke:none;fill-rule:nonzero;fill:rgb(91.764706%,5.490196%,6.666667%);fill-opacity:1;" d="M 45.484375 5.980469 C 45.78125 5.996094 46.140625 5.984375 46.339844 6.246094 C 46.507812 6.492188 46.558594 6.835938 46.632812 7.121094 C 47.03125 8.976562 47.414062 10.839844 47.8125 12.695312 C 48.199219 10.863281 48.585938 9.027344 48.972656 7.195312 C 49.050781 6.894531 49.101562 6.550781 49.261719 6.28125 C 49.460938 5.972656 49.859375 5.996094 50.183594 5.976562 C 50.570312 5.984375 51.066406 5.933594 51.378906 6.207031 C 51.652344 6.4375 51.65625 6.871094 51.664062 7.199219 C 51.667969 9.765625 51.664062 12.335938 51.667969 14.898438 C 51.660156 15.269531 51.652344 15.71875 51.390625 16.007812 C 51.152344 16.277344 50.703125 16.296875 50.449219 16.039062 C 50.195312 15.78125 50.160156 15.441406 50.148438 15.101562 C 50.140625 12.851562 50.15625 10.597656 50.140625 8.347656 C 49.695312 10.53125 49.273438 12.71875 48.832031 14.902344 C 48.746094 15.277344 48.695312 15.652344 48.433594 15.953125 C 48.144531 16.308594 47.515625 16.308594 47.21875 15.96875 C 46.960938 15.695312 46.871094 15.253906 46.792969 14.898438 C 46.40625 13 46.039062 11.097656 45.65625 9.199219 C 45.597656 8.921875 45.5625 8.640625 45.519531 8.363281 C 45.5 8.609375 45.480469 8.855469 45.480469 9.101562 C 45.480469 11.066406 45.480469 13.035156 45.480469 15 C 45.480469 15.339844 45.445312 15.757812 45.203125 16.015625 C 44.957031 16.28125 44.507812 16.289062 44.253906 16.03125 C 43.984375 15.757812 43.972656 15.363281 43.960938 15 C 43.957031 12.5 43.960938 10 43.957031 7.5 C 43.96875 7.109375 43.910156 6.53125 44.21875 6.230469 C 44.546875 5.921875 45.066406 5.984375 45.484375 5.980469 Z M 45.484375 5.980469 "/>
<path style=" stroke:none;fill-rule:nonzero;fill:rgb(91.764706%,5.490196%,6.666667%);fill-opacity:1;" d="M 71.777344 5.980469 C 73.109375 5.980469 74.441406 5.984375 75.773438 5.980469 C 76.027344 5.984375 76.320312 5.96875 76.523438 6.152344 C 76.820312 6.429688 76.828125 6.992188 76.570312 7.300781 C 76.386719 7.511719 76.132812 7.511719 75.875 7.519531 C 74.707031 7.519531 73.542969 7.519531 72.378906 7.519531 C 72.375 8.339844 72.375 9.160156 72.378906 9.980469 C 73.445312 9.980469 74.511719 9.980469 75.578125 9.980469 C 75.835938 9.988281 76.085938 9.984375 76.269531 10.203125 C 76.511719 10.503906 76.5 11.070312 76.21875 11.34375 C 76.039062 11.519531 75.808594 11.511719 75.578125 11.519531 C 74.511719 11.519531 73.445312 11.519531 72.378906 11.519531 C 72.375 12.472656 72.375 13.425781 72.378906 14.382812 C 73.578125 14.378906 74.777344 14.382812 75.976562 14.378906 C 76.269531 14.382812 76.539062 14.394531 76.726562 14.652344 C 76.949219 14.96875 76.945312 15.507812 76.679688 15.804688 C 76.488281 16.015625 76.238281 16.011719 75.976562 16.019531 C 74.574219 16.019531 73.175781 16.019531 71.777344 16.019531 C 71.460938 16.015625 71.164062 15.976562 70.957031 15.71875 C 70.746094 15.449219 70.730469 15.03125 70.722656 14.703125 C 70.71875 12.269531 70.722656 9.832031 70.71875 7.398438 C 70.722656 7.035156 70.726562 6.582031 70.957031 6.28125 C 71.164062 6.023438 71.460938 5.984375 71.777344 5.980469 Z M 71.777344 5.980469 "/>
<path style=" stroke:none;fill-rule:nonzero;fill:rgb(91.764706%,5.490196%,6.666667%);fill-opacity:1;" d="M 78.472656 5.984375 C 80.105469 5.976562 81.742188 5.984375 83.371094 5.980469 C 83.660156 5.984375 83.96875 5.964844 84.195312 6.179688 C 84.472656 6.449219 84.503906 6.941406 84.359375 7.285156 C 84.238281 7.570312 83.976562 7.707031 83.675781 7.714844 C 83.070312 7.730469 82.46875 7.710938 81.863281 7.71875 C 81.863281 10.113281 81.863281 12.507812 81.863281 14.902344 C 81.859375 15.269531 81.835938 15.714844 81.566406 15.992188 C 81.308594 16.285156 80.828125 16.296875 80.550781 16.023438 C 80.25 15.738281 80.226562 15.292969 80.21875 14.902344 C 80.214844 12.507812 80.21875 10.113281 80.214844 7.71875 C 79.546875 7.699219 78.855469 7.765625 78.191406 7.683594 C 77.660156 7.554688 77.5625 6.886719 77.722656 6.445312 C 77.847656 6.125 78.140625 5.980469 78.472656 5.984375 Z M 78.472656 5.984375 "/>
<path style=" stroke:none;fill-rule:nonzero;fill:rgb(91.764706%,5.490196%,6.666667%);fill-opacity:1;" d="M 106.765625 5.980469 C 107.632812 5.984375 108.496094 5.976562 109.363281 5.984375 C 109.929688 6 110.449219 6.011719 110.941406 6.320312 C 111.664062 6.761719 112.023438 7.582031 112.09375 8.398438 C 112.152344 9.148438 112.046875 9.996094 111.558594 10.597656 C 111.1875 11.058594 110.683594 11.304688 110.128906 11.480469 C 110.8125 12.003906 111.277344 12.851562 111.648438 13.613281 C 111.882812 14.121094 112.109375 14.65625 112.226562 15.203125 C 112.339844 15.683594 111.984375 16.230469 111.464844 16.21875 C 111.058594 16.230469 110.828125 15.933594 110.652344 15.609375 C 110.265625 14.855469 109.921875 14.074219 109.550781 13.3125 C 109.324219 12.855469 109.070312 12.320312 108.675781 11.988281 C 108.28125 11.65625 107.734375 11.726562 107.253906 11.71875 C 107.25 12.777344 107.257812 13.839844 107.253906 14.898438 C 107.242188 15.269531 107.222656 15.710938 106.957031 15.992188 C 106.683594 16.300781 106.148438 16.296875 105.882812 15.984375 C 105.628906 15.695312 105.605469 15.269531 105.601562 14.902344 C 105.601562 12.367188 105.601562 9.832031 105.601562 7.296875 C 105.605469 6.941406 105.625 6.492188 105.886719 6.222656 C 106.136719 5.980469 106.441406 5.984375 106.765625 5.980469 Z M 106.765625 5.980469 "/>
<path style=" stroke:none;fill-rule:nonzero;fill:;fill-opacity:1;" d="M 38.039062 7.46875 C 38.671875 7.320312 39.347656 7.519531 39.800781 7.984375 C 40.339844 8.527344 40.574219 9.363281 40.664062 10.097656 C 40.75 10.964844 40.734375 11.878906 40.496094 12.71875 C 40.316406 13.320312 40.007812 13.929688 39.464844 14.277344 C 38.921875 14.644531 38.195312 14.679688 37.621094 14.367188 C 37.15625 14.117188 36.820312 13.644531 36.617188 13.167969 C 36.3125 12.433594 36.226562 11.589844 36.242188 10.800781 C 36.257812 10.023438 36.390625 9.171875 36.769531 8.484375 C 37.046875 7.988281 37.476562 7.601562 38.039062 7.46875 Z M 38.039062 7.46875 "/>
<path style=" stroke:none;fill-rule:nonzero;fill:;fill-opacity:1;" d="M 99.617188 7.46875 C 100.277344 7.316406 100.976562 7.535156 101.433594 8.035156 C 101.953125 8.601562 102.179688 9.453125 102.253906 10.199219 C 102.328125 11.054688 102.308594 11.972656 102.054688 12.796875 C 101.867188 13.375 101.566406 13.941406 101.046875 14.277344 C 100.503906 14.644531 99.773438 14.679688 99.203125 14.367188 C 98.738281 14.117188 98.398438 13.644531 98.199219 13.167969 C 97.894531 12.433594 97.804688 11.589844 97.820312 10.800781 C 97.839844 10.042969 97.964844 9.226562 98.316406 8.550781 C 98.589844 8.023438 99.03125 7.605469 99.617188 7.46875 Z M 99.617188 7.46875 "/>
<path style=" stroke:none;fill-rule:nonzero;fill:;fill-opacity:1;" d="M 107.253906 7.519531 C 107.859375 7.523438 108.460938 7.507812 109.066406 7.53125 C 109.414062 7.554688 109.769531 7.570312 110.035156 7.828125 C 110.46875 8.234375 110.519531 8.953125 110.347656 9.488281 C 110.191406 9.953125 109.769531 10.152344 109.316406 10.230469 C 108.636719 10.324219 107.9375 10.265625 107.253906 10.28125 C 107.253906 9.359375 107.253906 8.441406 107.253906 7.519531 Z M 107.253906 7.519531 "/>
<path style=" stroke:none;fill-rule:nonzero;fill:rgb(91.764706%,5.490196%,6.666667%);fill-opacity:1;" d="M 14.042969 7.96875 C 14.734375 7.820312 15.464844 7.867188 16.101562 8.191406 C 16.742188 8.511719 17.339844 9 17.535156 9.71875 C 17.578125 10.019531 17.640625 10.324219 17.402344 10.5625 C 17.253906 10.484375 17.113281 10.421875 16.992188 10.304688 C 16.53125 9.863281 16.175781 9.25 15.816406 8.742188 C 15.75 8.769531 15.691406 8.808594 15.632812 8.855469 C 15.75 8.972656 15.867188 9.089844 15.980469 9.210938 C 15.285156 9.617188 14.332031 9.519531 13.640625 9.15625 C 13.398438 9.03125 13.074219 8.714844 13.113281 8.421875 C 13.347656 8.175781 13.722656 8.050781 14.042969 7.96875 Z M 14.042969 7.96875 "/>
<path style=" stroke:none;fill-rule:nonzero;fill:;fill-opacity:1;" d="M 56.726562 7.996094 C 57.113281 9.359375 57.503906 10.71875 57.890625 12.082031 C 57.117188 12.082031 56.347656 12.082031 55.574219 12.082031 C 55.929688 10.804688 56.285156 9.527344 56.648438 8.25 C 56.671875 8.164062 56.699219 8.082031 56.726562 7.996094 Z M 56.726562 7.996094 "/>
<path style=" stroke:none;fill-rule:nonzero;fill:rgb(91.764706%,5.490196%,6.666667%);fill-opacity:1;" d="M 12.695312 8.480469 C 12.980469 8.390625 13.0625 8.554688 13.015625 8.8125 C 12.839844 9.488281 12.40625 10.121094 12.050781 10.71875 C 12.128906 10.734375 12.199219 10.753906 12.277344 10.769531 C 12.324219 10.605469 12.386719 10.453125 12.484375 10.3125 C 12.949219 10.675781 13.316406 11.128906 13.429688 11.71875 C 13.503906 12.171875 13.5625 12.660156 13.214844 13.019531 C 13.152344 13.128906 12.960938 13.070312 12.871094 13.03125 C 11.953125 12.546875 11.371094 11.539062 11.445312 10.5 C 11.464844 9.648438 11.859375 8.789062 12.695312 8.480469 Z M 12.695312 8.480469 "/>
<path style=" stroke:none;fill-rule:nonzero;fill:rgb(91.764706%,5.490196%,6.666667%);fill-opacity:1;" d="M 14.230469 9.941406 C 14.78125 9.714844 15.453125 10.097656 15.515625 10.695312 C 15.5625 11.183594 15.160156 11.605469 14.691406 11.671875 C 14.171875 11.753906 13.628906 11.335938 13.613281 10.800781 C 13.601562 10.410156 13.875 10.074219 14.230469 9.941406 Z M 14.230469 9.941406 "/>
<path style=" stroke:none;fill-rule:nonzero;fill:rgb(91.764706%,5.490196%,6.666667%);fill-opacity:1;" d="M 17.4375 10.757812 C 17.597656 11.785156 17.007812 12.816406 16.128906 13.332031 C 15.417969 13.753906 14.542969 14.011719 13.75 13.648438 C 13.59375 13.570312 13.320312 13.4375 13.324219 13.230469 C 13.410156 13.070312 13.628906 13.019531 13.789062 12.980469 C 14.429688 12.847656 15.140625 12.875 15.792969 12.828125 C 15.769531 12.761719 15.746094 12.695312 15.722656 12.628906 C 15.535156 12.65625 15.398438 12.777344 15.226562 12.65625 C 15.285156 12.0625 15.625 11.476562 16.105469 11.113281 C 16.488281 10.796875 16.9375 10.589844 17.4375 10.757812 Z M 17.4375 10.757812 "/>
</g>
</svg>
