<svg xmlns="http://www.w3.org/2000/svg" viewBox="0 0 123 22">
  <path d="M18.613 1.473c2.075.797 3.887 2.246 5.09 4.12a9.736 9.736 0 0 1 1.54 4.907c.058 1.7-.34 3.41-1.145 4.906-1.621 3.055-4.801 5.106-8.227 5.473a11.11 11.11 0 0 1-6.062-.992 10.56 10.56 0 0 1-4.325-3.778 9.658 9.658 0 0 1-1.558-5.308 9.562 9.562 0 0 1 .879-3.992c.863-1.883 2.312-3.457 4.082-4.52 2.898-1.754 6.578-2.043 9.726-.816Zm0 0" style="stroke:none;fill-rule:nonzero;fill:#ea0e11;fill-opacity:1"/>
  <path d="M13.797 2.535c.812-.031 1.594-.043 2.394.125 2.657.524 5.024 2.246 6.282 4.656.593 1.153.945 2.48.894 3.786-.031 1.738-.687 3.445-1.773 4.8-1.723 2.176-4.535 3.403-7.297 3.282-1.098-.082-2.172-.266-3.188-.7-1.855-.754-3.437-2.144-4.375-3.922a7.577 7.577 0 0 1-.898-3.976c-.063-1.07.27-2.176.707-3.14 1.305-2.801 4.184-4.704 7.254-4.91Zm0 0" style="stroke:none;fill-rule:nonzero;fill-opacity:1"/>
  <path d="M14.582 4.152c2.031 1.11 4.066 2.227 6.094 3.34-.004 2.227 0 4.453-.004 6.68a1606.45 1606.45 0 0 1-6.082 3.336c-2.027-1.106-4.05-2.223-6.078-3.332-.012-2.23.008-4.457-.012-6.688a578.407 578.407 0 0 1 6.082-3.336Zm16.289 1.7c.953.183 1.777.894 2.024 1.847.117.453.113.926-.215 1.29-.239.277-.73.269-.938-.04-.351-.465-.426-1.176-.957-1.547-.418-.238-1.004-.238-1.441-.05-.52.234-.82.789-.657 1.347.133.438.555.688.958.844.906.336 1.964.547 2.734 1.172.64.508.906 1.285.93 2.086.046 1.02-.266 2.07-1.079 2.738-.792.652-1.847.777-2.84.617a2.758 2.758 0 0 1-1.777-1.082c-.402-.554-.695-1.285-.644-1.976.039-.387.297-.79.722-.79.309-.007.497.215.622.47.226.5.312 1.081.71 1.492.407.445 1.122.488 1.668.32a1.43 1.43 0 0 0 .993-1.492c-.016-.532-.364-.946-.84-1.153-.766-.328-1.582-.46-2.324-.87-.66-.337-1.165-.946-1.325-1.677-.164-.753-.101-1.62.29-2.3.261-.461.675-.82 1.16-1.032.683-.304 1.496-.347 2.226-.214Zm6.762.008c.969-.184 2.058-.055 2.883.511.695.473 1.16 1.168 1.449 1.945.39 1.063.472 2.262.394 3.383-.082 1.09-.336 2.192-.984 3.09a3.337 3.337 0 0 1-2.035 1.344c-.957.191-1.992.082-2.824-.461-.778-.5-1.274-1.285-1.567-2.149-.347-1.054-.433-2.218-.347-3.324.086-1.05.355-2.136.984-3a3.34 3.34 0 0 1 2.047-1.34Zm19.847.242c.313.34.45.886.586 1.32.735 2.32 1.485 4.64 2.223 6.96.094.34.227.75.156 1.102-.093.399-.414.79-.867.73-.308-.03-.473-.26-.586-.526-.265-.668-.445-1.38-.652-2.067a437.79 437.79 0 0 0-3.203 0c-.23.738-.395 1.516-.703 2.227-.149.39-.63.472-.954.257a1.035 1.035 0 0 1-.41-.703c-.03-.316.067-.652.157-.957.761-2.441 1.523-4.883 2.28-7.324.11-.344.231-.75.477-1.02.371-.43 1.125-.43 1.496 0Zm5.942-.145c.293.266.457.707.644 1.055 1.016 1.933 2.028 3.867 3.047 5.797V7c.012-.336.032-.738.266-1.004.25-.297.746-.289.996.008.227.254.258.664.262.992-.004 2.602-.004 5.203 0 7.805-.004.367-.024.8-.242 1.113-.286.406-.954.39-1.29.059-.27-.262-.453-.641-.632-.97-.996-1.937-1.98-3.882-2.98-5.816V15c-.009.363-.032.742-.294 1.02a.672.672 0 0 1-.949.007c-.285-.293-.297-.738-.305-1.129.004-2.53.004-5.066.004-7.597.012-.438.008-.871.32-1.211.286-.336.805-.43 1.153-.133Zm22.062-.141c.293-.082.657-.027.809.266.168.344.234.75.305 1.121.34 1.895.668 3.79 1.02 5.684.386-1.848.788-3.692 1.183-5.54.101-.413.172-.921.465-1.253.254-.332.765-.387 1.129-.23.394.202.543.648.636 1.054.446 1.988.86 3.98 1.297 5.973.356-2.004.715-4.008 1.074-6.012.07-.344.125-.703.395-.957.305-.242.777-.164 1 .152.312.41.183.938.11 1.406-.458 2.375-.923 4.75-1.391 7.122-.098.421-.157.964-.434 1.308-.293.414-1.031.41-1.336.012-.258-.285-.32-.707-.41-1.07-.465-2.102-.89-4.215-1.356-6.317-.48 2.117-.91 4.25-1.386 6.371-.09.36-.153.723-.403 1.016-.308.402-1.03.402-1.332-.012-.25-.328-.332-.816-.418-1.21-.453-2.305-.898-4.614-1.351-6.919-.07-.383-.168-.797-.14-1.183.027-.328.218-.664.534-.782Zm14.004-.003c.88-.102 1.79.027 2.547.519.703.453 1.184 1.14 1.48 1.914.415 1.078.505 2.309.426 3.453-.082 1.09-.34 2.192-.988 3.09a3.326 3.326 0 0 1-2.035 1.344c-.957.191-1.992.082-2.82-.461-.782-.5-1.274-1.285-1.567-2.149-.363-1.085-.441-2.289-.344-3.421.106-1.086.41-2.211 1.11-3.075a3.338 3.338 0 0 1 2.191-1.215ZM115.262 6c.281.29.3.719.308 1.102 0 1.144-.004 2.289 0 3.433 1.051-1.394 2.094-2.789 3.145-4.183.14-.176.293-.391.492-.504.332-.149.742-.051.941.265.297.457.168 1.012-.156 1.414-.656.801-1.328 1.594-1.988 2.391.797 1.453 1.605 2.902 2.394 4.36.235.456.485 1.077.204 1.566-.25.469-.961.488-1.305.12-.262-.273-.402-.687-.578-1.023-.617-1.199-1.235-2.402-1.856-3.601-.433.52-.863 1.043-1.293 1.566-.007.73.008 1.465-.007 2.196-.016.421-.118.867-.536 1.062-.43.184-.867-.098-1.015-.508-.102-.332-.082-.71-.094-1.054v-7.5c.012-.368.023-.778.27-1.075.265-.324.792-.332 1.074-.027Zm0 0" style="stroke:none;fill-rule:nonzero;fill:#ea0e11;fill-opacity:1"/>
  <path d="M14.586 5.953c1.48.809 2.965 1.625 4.445 2.434 0 1.633.008 3.265-.004 4.898-1.48.805-2.953 1.621-4.437 2.426a691.138 691.138 0 0 1-4.457-2.438c0-1.632-.004-3.261.004-4.89 1.484-.805 2.957-1.637 4.449-2.43Zm0 0" style="stroke:none;fill-rule:nonzero;fill-opacity:1"/>
  <path d="M45.484 5.98c.297.016.657.004.856.266.168.246.219.59.293.875.398 1.856.781 3.719 1.18 5.574l1.16-5.5c.078-.3.129-.644.289-.914.199-.308.597-.285.922-.304.386.007.882-.043 1.195.23.273.23.277.664.285.992.004 2.567 0 5.137.004 7.7-.008.37-.016.82-.277 1.109a.66.66 0 0 1-.942.031c-.254-.258-.289-.598-.3-.937-.008-2.25.007-4.504-.008-6.754-.446 2.183-.868 4.37-1.309 6.554-.086.375-.137.75-.398 1.051-.29.356-.918.356-1.215.016-.258-.274-.348-.715-.426-1.07-.387-1.899-.754-3.801-1.137-5.7-.058-.277-.093-.558-.136-.836-.02.246-.04.492-.04.739V15c0 .34-.035.758-.277 1.016a.672.672 0 0 1-.95.015c-.269-.273-.28-.668-.292-1.031-.004-2.5 0-5-.004-7.5.012-.39-.047-.969.262-1.27.328-.308.847-.246 1.265-.25Zm26.293 0c1.332 0 2.664.004 3.996 0 .254.004.547-.011.75.172.297.278.305.84.047 1.149-.183.21-.437.21-.695.219h-3.496c-.004.82-.004 1.64 0 2.46h3.2c.257.008.507.004.69.223.243.3.231.867-.05 1.14-.18.177-.41.169-.64.177h-3.2c-.004.953-.004 1.906 0 2.863 1.2-.004 2.398 0 3.598-.004.293.004.562.016.75.273.222.317.218.856-.047 1.153-.192.21-.442.207-.703.215h-4.2c-.316-.004-.613-.043-.82-.301-.21-.27-.227-.688-.234-1.016-.004-2.433 0-4.871-.004-7.305.004-.363.008-.816.238-1.117.207-.258.504-.297.82-.3Zm6.696.004c1.632-.007 3.27 0 4.898-.004.29.004.598-.015.824.2.278.27.309.761.164 1.105-.12.285-.382.422-.683.43-.606.015-1.207-.004-1.813.004v7.183c-.004.368-.027.813-.297 1.09a.714.714 0 0 1-1.015.031c-.301-.285-.324-.73-.332-1.12-.004-2.395 0-4.79-.004-7.184-.668-.02-1.36.047-2.024-.035-.53-.13-.629-.797-.468-1.239.125-.32.418-.465.75-.46Zm28.293-.004c.867.004 1.73-.003 2.597.004.567.016 1.086.028 1.578.336.723.442 1.082 1.262 1.153 2.078.058.75-.047 1.598-.535 2.2-.371.46-.875.707-1.43.882.683.524 1.148 1.372 1.52 2.133.234.508.46 1.043.578 1.59.113.48-.243 1.027-.762 1.016-.406.011-.637-.285-.813-.61-.386-.754-.73-1.535-1.101-2.296-.227-.458-.48-.993-.875-1.325-.395-.332-.942-.261-1.422-.27-.004 1.06.004 2.122 0 3.18-.012.372-.031.813-.297 1.094-.273.309-.809.305-1.074-.008-.254-.289-.278-.714-.281-1.082V7.297c.003-.356.023-.805.285-1.074.25-.243.554-.239.879-.243Zm0 0" style="stroke:none;fill-rule:nonzero;fill:#ea0e11;fill-opacity:1"/>
  <path d="M38.04 7.469a1.877 1.877 0 0 1 1.76.515c.54.543.774 1.38.864 2.114.086.867.07 1.78-.168 2.62-.18.602-.488 1.212-1.031 1.56a1.797 1.797 0 0 1-1.844.09c-.465-.25-.8-.723-1.004-1.2-.304-.734-.39-1.578-.375-2.367.016-.778.149-1.63.528-2.317.277-.496.707-.882 1.27-1.015Zm61.577 0c.66-.153 1.36.066 1.817.566.52.567.746 1.418.82 2.164.074.856.055 1.774-.2 2.598-.187.578-.488 1.144-1.007 1.48a1.797 1.797 0 0 1-1.844.09c-.465-.25-.805-.722-1.004-1.199-.304-.734-.394-1.578-.379-2.367.02-.758.145-1.574.496-2.25.274-.528.715-.946 1.301-1.082Zm7.637.051c.605.003 1.207-.012 1.812.011.348.024.704.04.97.297.433.406.484 1.125.312 1.66-.157.465-.578.664-1.032.742-.68.094-1.379.036-2.062.051V7.52Zm0 0" style="stroke:none;fill-rule:nonzero;fill-opacity:1"/>
  <path d="M14.043 7.969c.691-.149 1.422-.102 2.059.222.64.32 1.238.809 1.433 1.528.043.3.106.605-.133.844-.148-.079-.289-.141-.41-.258-.46-.442-.816-1.055-1.176-1.563a.752.752 0 0 0-.183.113c.117.118.234.235.347.356-.695.406-1.648.309-2.34-.055-.242-.125-.566-.441-.527-.734.235-.246.61-.371.93-.453Zm0 0" style="stroke:none;fill-rule:nonzero;fill:#ea0e11;fill-opacity:1"/>
  <path d="M56.727 7.996c.386 1.363.777 2.723 1.164 4.086h-2.317c.356-1.277.711-2.555 1.074-3.832.024-.086.051-.168.079-.254Zm0 0" style="stroke:none;fill-rule:nonzero;fill-opacity:1"/>
  <path d="M12.695 8.48c.285-.09.367.075.32.332-.175.676-.609 1.31-.964 1.907.078.015.148.035.226.05a1.51 1.51 0 0 1 .207-.457c.465.364.832.817.946 1.407.074.453.133.941-.215 1.3-.063.11-.254.051-.344.012-.918-.484-1.5-1.492-1.426-2.531.02-.852.414-1.71 1.25-2.02Zm1.535 1.461c.551-.226 1.223.157 1.286.754.046.489-.356.91-.825.977-.52.082-1.062-.336-1.078-.871-.011-.39.262-.727.617-.86Zm3.208.817c.16 1.027-.43 2.058-1.31 2.574-.71.422-1.585.68-2.378.316-.156-.078-.43-.21-.426-.418.086-.16.305-.21.465-.25.64-.132 1.352-.105 2.004-.152l-.07-.2c-.188.028-.325.15-.496.028.058-.594.398-1.18.878-1.543.383-.316.832-.523 1.332-.355Zm0 0" style="stroke:none;fill-rule:nonzero;fill:#ea0e11;fill-opacity:1"/>
</svg>
