<?xml version="1.0" encoding="UTF-8"?>
<svg xmlns="http://www.w3.org/2000/svg" xmlns:xlink="http://www.w3.org/1999/xlink" width="30px" height="30px" viewBox="0 0 30 30" version="1.1">
<g id="surface1">
<path style=" stroke:none;fill-rule:nonzero;fill:rgb(69.411765%,9.803922%,12.941176%);fill-opacity:1;" d="M 14.269531 2.816406 C 14.632812 2.765625 14.988281 2.785156 15.351562 2.785156 C 15.824219 2.835938 16.332031 2.832031 16.804688 2.917969 C 16.660156 2.902344 16.523438 2.890625 16.378906 2.910156 C 16.417969 3.015625 16.421875 3.035156 16.371094 3.132812 C 16.710938 3.148438 17.050781 3.230469 17.378906 3.316406 C 17.585938 3.355469 17.789062 3.402344 17.992188 3.464844 C 20.195312 4.03125 22.222656 5.269531 23.757812 6.949219 C 25.042969 8.355469 25.988281 10.066406 26.476562 11.914062 C 26.578125 12.269531 26.648438 12.628906 26.707031 12.996094 C 26.800781 13.417969 26.816406 13.84375 26.855469 14.273438 C 26.878906 14.738281 26.878906 15.207031 26.859375 15.671875 C 26.816406 16.113281 26.800781 16.550781 26.703125 16.988281 C 26.363281 19.035156 25.460938 20.980469 24.136719 22.574219 C 23.796875 23 23.414062 23.367188 23.027344 23.746094 C 22.238281 24.460938 21.355469 25.085938 20.410156 25.570312 C 19.773438 25.902344 19.097656 26.160156 18.417969 26.378906 C 18.128906 26.464844 17.835938 26.558594 17.539062 26.621094 C 17.324219 26.664062 17.113281 26.683594 16.90625 26.753906 C 16.929688 26.867188 16.824219 26.90625 16.847656 27.023438 C 16.953125 27.007812 17.054688 26.996094 17.15625 26.980469 C 17.074219 27 16.988281 27.015625 16.90625 27.027344 C 16.519531 27.070312 16.136719 27.128906 15.75 27.15625 C 15.351562 27.167969 14.953125 27.171875 14.550781 27.164062 C 14.046875 27.167969 13.535156 27.085938 13.035156 27.023438 C 12.28125 26.890625 11.535156 26.707031 10.816406 26.441406 C 9.308594 25.898438 7.921875 25.046875 6.734375 23.96875 C 6.488281 23.734375 6.25 23.496094 6.015625 23.25 C 4.539062 21.648438 3.496094 19.652344 3.050781 17.519531 C 2.976562 17.242188 2.953125 16.953125 2.898438 16.671875 C 2.859375 16.484375 2.863281 16.296875 2.835938 16.109375 C 2.8125 15.925781 2.828125 15.738281 2.800781 15.554688 C 2.773438 15.390625 2.785156 15.234375 2.78125 15.070312 C 2.785156 14.804688 2.769531 14.539062 2.8125 14.273438 C 2.828125 13.816406 2.871094 13.363281 2.960938 12.914062 C 2.980469 12.746094 3.011719 12.585938 3.054688 12.425781 C 3.574219 9.949219 4.894531 7.664062 6.769531 5.964844 C 8.445312 4.429688 10.5625 3.382812 12.800781 2.980469 C 13.027344 2.949219 13.253906 2.902344 13.480469 2.871094 C 13.746094 2.851562 14.003906 2.816406 14.269531 2.816406 Z M 14.269531 2.816406 "/>
<path style=" stroke:none;fill-rule:nonzero;fill:rgb(88.235294%,13.333333%,17.647059%);fill-opacity:1;" d="M 16.378906 2.910156 C 16.523438 2.890625 16.660156 2.902344 16.804688 2.917969 C 18.660156 3.195312 20.449219 3.914062 21.984375 4.992188 C 23.476562 6.042969 24.738281 7.433594 25.628906 9.03125 C 26.21875 10.078125 26.640625 11.210938 26.902344 12.386719 C 26.9375 12.644531 27.011719 12.894531 27.039062 13.152344 C 27.058594 13.367188 27.101562 13.578125 27.117188 13.792969 C 27.1875 14.320312 27.164062 14.859375 27.164062 15.390625 C 27.171875 15.890625 27.089844 16.375 27.03125 16.875 C 27.003906 17.089844 26.945312 17.300781 26.910156 17.515625 C 26.367188 20.125 24.929688 22.527344 22.898438 24.253906 C 21.507812 25.445312 19.839844 26.320312 18.070312 26.78125 C 17.769531 26.867188 17.464844 26.917969 17.15625 26.980469 C 17.054688 26.996094 16.953125 27.007812 16.847656 27.023438 C 16.824219 26.90625 16.929688 26.867188 16.90625 26.753906 C 17.113281 26.683594 17.324219 26.664062 17.539062 26.621094 C 17.835938 26.558594 18.128906 26.464844 18.417969 26.378906 C 19.097656 26.160156 19.773438 25.902344 20.410156 25.570312 C 21.355469 25.085938 22.238281 24.460938 23.027344 23.746094 C 23.414062 23.367188 23.796875 23 24.136719 22.574219 C 25.460938 20.980469 26.363281 19.035156 26.703125 16.988281 C 26.800781 16.550781 26.816406 16.113281 26.859375 15.671875 C 26.878906 15.207031 26.878906 14.738281 26.855469 14.273438 C 26.816406 13.84375 26.800781 13.417969 26.707031 12.996094 C 26.648438 12.628906 26.578125 12.269531 26.476562 11.914062 C 25.988281 10.066406 25.042969 8.355469 23.757812 6.949219 C 22.222656 5.269531 20.195312 4.03125 17.992188 3.464844 C 17.789062 3.402344 17.585938 3.355469 17.378906 3.316406 C 17.050781 3.230469 16.710938 3.148438 16.371094 3.132812 C 16.421875 3.035156 16.417969 3.015625 16.378906 2.910156 Z M 16.378906 2.910156 "/>
<path style=" stroke:none;fill-rule:nonzero;fill:rgb(88.235294%,13.333333%,17.647059%);fill-opacity:1;" d="M 13.15625 3.300781 C 13.179688 3.359375 13.199219 3.421875 13.21875 3.480469 C 13.234375 3.414062 13.25 3.347656 13.265625 3.28125 C 13.445312 3.242188 13.550781 3.265625 13.695312 3.375 C 13.585938 3.351562 13.480469 3.328125 13.371094 3.335938 C 13.417969 3.386719 13.472656 3.417969 13.535156 3.449219 C 13.421875 3.511719 13.367188 3.628906 13.386719 3.753906 C 13.425781 3.8125 13.480469 3.855469 13.527344 3.902344 C 13.488281 3.976562 13.445312 4.042969 13.394531 4.109375 C 13.429688 4.222656 13.492188 4.3125 13.421875 4.429688 C 13.378906 4.5 13.398438 4.5625 13.410156 4.640625 C 13.359375 4.652344 13.308594 4.664062 13.257812 4.675781 C 13.253906 4.746094 13.25 4.816406 13.25 4.886719 C 13.320312 4.828125 13.394531 4.765625 13.46875 4.707031 C 13.425781 4.851562 13.371094 4.972656 13.269531 5.085938 C 12.984375 5.109375 12.714844 5.195312 12.433594 5.257812 C 10.699219 5.707031 9.09375 6.636719 7.835938 7.914062 C 6.449219 9.304688 5.492188 11.105469 5.109375 13.03125 C 5.078125 13.242188 5.035156 13.449219 5.003906 13.65625 C 4.914062 14.328125 4.914062 14.996094 4.941406 15.671875 C 4.96875 15.960938 4.980469 16.25 5.042969 16.539062 C 5.183594 17.492188 5.480469 18.429688 5.894531 19.300781 C 6.007812 19.527344 6.105469 19.746094 6.242188 19.957031 C 6.675781 20.679688 7.15625 21.355469 7.75 21.953125 C 8.367188 22.59375 9.066406 23.152344 9.832031 23.605469 C 9.957031 23.707031 10.101562 23.78125 10.242188 23.855469 C 11.371094 24.460938 12.613281 24.84375 13.886719 24.980469 C 13.902344 25.039062 13.921875 25.09375 13.941406 25.152344 C 13.863281 25.179688 13.785156 25.203125 13.703125 25.222656 C 13.6875 25.238281 13.675781 25.257812 13.660156 25.277344 C 13.703125 25.28125 13.746094 25.289062 13.789062 25.292969 C 13.765625 25.378906 13.710938 25.417969 13.644531 25.46875 C 13.683594 25.550781 13.742188 25.636719 13.765625 25.726562 C 13.75 25.816406 13.699219 25.898438 13.691406 25.984375 C 13.679688 26.097656 13.695312 26.214844 13.703125 26.328125 C 13.65625 26.308594 13.613281 26.292969 13.570312 26.28125 C 13.636719 26.394531 13.746094 26.398438 13.863281 26.433594 C 13.804688 26.460938 13.75 26.484375 13.691406 26.511719 C 13.738281 26.519531 13.78125 26.527344 13.828125 26.53125 C 13.789062 26.578125 13.75 26.621094 13.710938 26.667969 C 13.789062 26.644531 13.867188 26.617188 13.941406 26.59375 C 13.941406 26.621094 13.9375 26.652344 13.9375 26.679688 C 13.734375 26.761719 13.5625 26.683594 13.355469 26.695312 C 13.042969 26.699219 12.738281 26.644531 12.429688 26.578125 C 11.875 26.441406 11.328125 26.308594 10.792969 26.097656 C 10.1875 25.867188 9.597656 25.585938 9.039062 25.261719 C 7.226562 24.222656 5.703125 22.691406 4.667969 20.878906 C 3.898438 19.539062 3.386719 18.039062 3.203125 16.503906 C 3.144531 16.1875 3.128906 15.871094 3.121094 15.550781 C 3.085938 15.003906 3.117188 14.460938 3.140625 13.910156 C 3.210938 13.265625 3.316406 12.613281 3.480469 11.988281 C 4.054688 9.777344 5.277344 7.742188 6.96875 6.210938 C 8.378906 4.910156 10.109375 3.980469 11.960938 3.492188 C 12.230469 3.40625 12.511719 3.367188 12.789062 3.3125 C 12.910156 3.289062 13.03125 3.292969 13.15625 3.300781 Z M 13.15625 3.300781 "/>
<path style=" stroke:none;fill-rule:nonzero;fill:rgb(70.980392%,67.058824%,58.823529%);fill-opacity:1;" d="M 14.511719 4.941406 C 14.933594 4.945312 15.367188 4.914062 15.78125 4.972656 C 16.15625 4.980469 16.535156 5.070312 16.898438 5.121094 C 18.632812 5.464844 20.265625 6.273438 21.59375 7.4375 C 21.789062 7.640625 22.019531 7.804688 22.203125 8.019531 C 22.320312 8.15625 22.4375 8.285156 22.5625 8.410156 C 23.207031 9.164062 23.753906 10.011719 24.15625 10.921875 C 24.503906 11.683594 24.734375 12.492188 24.882812 13.316406 C 24.925781 13.625 24.957031 13.9375 25.003906 14.25 C 25.011719 14.742188 25.011719 15.242188 25.003906 15.734375 C 24.960938 16.046875 24.921875 16.359375 24.882812 16.671875 C 24.671875 17.902344 24.238281 19.085938 23.59375 20.152344 C 22.613281 21.796875 21.152344 23.144531 19.4375 23.996094 C 18.449219 24.488281 17.371094 24.824219 16.273438 24.957031 C 15.484375 25.066406 14.671875 25.085938 13.886719 24.980469 C 12.613281 24.84375 11.371094 24.460938 10.242188 23.855469 C 10.101562 23.78125 9.957031 23.707031 9.832031 23.605469 C 10.015625 23.601562 10.125 23.710938 10.28125 23.785156 C 10.613281 23.957031 10.96875 24.144531 11.335938 24.230469 C 11.46875 24.285156 11.59375 24.347656 11.734375 24.378906 C 11.902344 24.414062 12.058594 24.5 12.230469 24.53125 C 12.320312 24.546875 12.410156 24.574219 12.496094 24.609375 C 12.640625 24.667969 12.796875 24.636719 12.953125 24.679688 C 13.285156 24.757812 13.617188 24.761719 13.953125 24.808594 C 14.117188 24.804688 14.265625 24.816406 14.429688 24.839844 C 14.726562 24.78125 15.015625 24.828125 15.3125 24.804688 C 15.609375 24.761719 15.902344 24.765625 16.195312 24.683594 C 16.339844 24.640625 16.492188 24.65625 16.636719 24.605469 C 16.863281 24.527344 17.101562 24.492188 17.328125 24.414062 C 17.550781 24.335938 17.769531 24.285156 17.984375 24.191406 C 18.199219 24.089844 18.421875 24.042969 18.621094 23.914062 C 18.839844 23.816406 19.035156 23.726562 19.230469 23.589844 C 19.976562 23.1875 20.660156 22.660156 21.25 22.050781 C 21.460938 21.839844 21.671875 21.648438 21.851562 21.410156 C 21.996094 21.222656 22.148438 21.039062 22.289062 20.847656 C 22.542969 20.453125 22.800781 20.09375 22.996094 19.667969 C 23.125 19.402344 23.269531 19.152344 23.359375 18.871094 C 23.460938 18.558594 23.601562 18.269531 23.675781 17.949219 C 23.730469 17.710938 23.816406 17.476562 23.84375 17.234375 C 23.847656 17.035156 23.929688 16.859375 23.953125 16.664062 C 23.984375 16.484375 23.957031 16.304688 23.992188 16.125 C 24.039062 15.890625 23.984375 15.660156 24.035156 15.429688 C 24.089844 15.167969 24.003906 14.933594 24.007812 14.671875 C 24.011719 14.511719 23.964844 14.359375 23.96875 14.195312 C 23.972656 14.011719 23.898438 13.851562 23.867188 13.660156 C 23.824219 13.363281 23.765625 13.066406 23.667969 12.785156 C 23.617188 12.667969 23.613281 12.542969 23.574219 12.421875 C 23.386719 11.953125 23.214844 11.496094 22.984375 11.042969 C 22.761719 10.640625 22.542969 10.25 22.265625 9.882812 C 21.996094 9.484375 21.6875 9.101562 21.332031 8.769531 C 20.980469 8.414062 20.609375 8.074219 20.210938 7.765625 C 19.960938 7.617188 19.742188 7.421875 19.480469 7.289062 C 19.089844 7.042969 18.683594 6.867188 18.273438 6.664062 C 18.054688 6.554688 17.824219 6.507812 17.601562 6.417969 C 17.398438 6.347656 17.195312 6.289062 16.992188 6.21875 C 16.863281 6.167969 16.726562 6.1875 16.59375 6.152344 C 16.402344 6.078125 16.195312 6.078125 15.996094 6.015625 C 15.71875 5.929688 15.460938 6.007812 15.179688 5.953125 C 15.019531 5.921875 14.863281 5.933594 14.703125 5.933594 C 14.597656 5.933594 14.496094 5.902344 14.394531 5.902344 C 14.191406 5.925781 13.996094 5.960938 13.792969 5.953125 C 13.519531 5.972656 13.242188 6 12.972656 6.039062 C 12.527344 6.136719 12.066406 6.226562 11.640625 6.390625 C 11.390625 6.472656 11.144531 6.539062 10.910156 6.664062 C 10.730469 6.765625 10.53125 6.804688 10.355469 6.90625 C 10.15625 7.019531 9.949219 7.105469 9.753906 7.226562 C 9.566406 7.34375 9.375 7.464844 9.1875 7.589844 C 8.941406 7.765625 8.71875 7.972656 8.46875 8.148438 C 8.332031 8.246094 8.226562 8.371094 8.105469 8.484375 C 7.675781 8.871094 7.296875 9.332031 6.945312 9.785156 C 6.726562 10.085938 6.519531 10.390625 6.351562 10.722656 C 6.171875 11 6.0625 11.300781 5.910156 11.59375 C 5.507812 12.527344 5.234375 13.535156 5.160156 14.550781 C 5.105469 14.933594 5.144531 15.332031 5.132812 15.71875 C 5.117188 15.925781 5.191406 16.113281 5.171875 16.320312 C 5.15625 16.554688 5.246094 16.761719 5.257812 16.992188 C 5.261719 17.132812 5.316406 17.257812 5.339844 17.398438 C 5.375 17.617188 5.476562 17.8125 5.5 18.03125 C 5.53125 18.246094 5.640625 18.402344 5.699219 18.605469 C 5.765625 18.867188 5.902344 19.089844 5.996094 19.339844 C 6.089844 19.5625 6.21875 19.769531 6.324219 19.988281 C 6.296875 19.976562 6.269531 19.96875 6.242188 19.957031 C 6.105469 19.746094 6.007812 19.527344 5.894531 19.300781 C 5.480469 18.429688 5.183594 17.492188 5.042969 16.539062 C 4.980469 16.25 4.96875 15.960938 4.941406 15.671875 C 4.914062 14.996094 4.914062 14.328125 5.003906 13.65625 C 5.035156 13.449219 5.078125 13.242188 5.109375 13.03125 C 5.492188 11.105469 6.449219 9.304688 7.835938 7.914062 C 9.09375 6.636719 10.699219 5.707031 12.433594 5.257812 C 12.714844 5.195312 12.984375 5.109375 13.269531 5.085938 C 13.683594 4.996094 14.09375 4.972656 14.511719 4.941406 Z M 14.511719 4.941406 "/>
<path style=" stroke:none;fill-rule:nonzero;fill:rgb(91.764706%,86.666667%,76.470588%);fill-opacity:1;" d="M 14.394531 5.902344 C 14.496094 5.902344 14.597656 5.933594 14.703125 5.933594 C 14.863281 5.933594 15.019531 5.921875 15.179688 5.953125 C 15.460938 6.007812 15.71875 5.929688 15.996094 6.015625 C 16.195312 6.078125 16.402344 6.078125 16.59375 6.152344 C 16.726562 6.1875 16.863281 6.167969 16.992188 6.21875 C 17.195312 6.289062 17.398438 6.347656 17.601562 6.417969 C 17.824219 6.507812 18.054688 6.554688 18.273438 6.664062 C 18.683594 6.867188 19.089844 7.042969 19.480469 7.289062 C 19.742188 7.421875 19.960938 7.617188 20.210938 7.765625 C 20.609375 8.074219 20.980469 8.414062 21.332031 8.769531 C 21.6875 9.101562 21.996094 9.484375 22.265625 9.882812 C 22.542969 10.25 22.761719 10.640625 22.984375 11.042969 C 23.214844 11.496094 23.386719 11.953125 23.574219 12.421875 C 23.613281 12.542969 23.617188 12.667969 23.667969 12.785156 C 23.765625 13.066406 23.824219 13.363281 23.867188 13.660156 C 23.898438 13.851562 23.972656 14.011719 23.96875 14.195312 C 23.964844 14.359375 24.011719 14.511719 24.007812 14.671875 C 24.003906 14.933594 24.089844 15.167969 24.035156 15.429688 C 23.984375 15.660156 24.039062 15.890625 23.992188 16.125 C 23.957031 16.304688 23.984375 16.484375 23.953125 16.664062 C 23.929688 16.859375 23.847656 17.035156 23.84375 17.234375 C 23.816406 17.476562 23.730469 17.710938 23.675781 17.949219 C 23.601562 18.269531 23.460938 18.558594 23.359375 18.871094 C 23.269531 19.152344 23.125 19.402344 22.996094 19.667969 C 22.800781 20.09375 22.542969 20.453125 22.289062 20.847656 C 22.148438 21.039062 21.996094 21.222656 21.851562 21.410156 C 21.671875 21.648438 21.460938 21.839844 21.25 22.050781 C 20.660156 22.660156 19.976562 23.1875 19.230469 23.589844 C 19.035156 23.726562 18.839844 23.816406 18.621094 23.914062 C 18.421875 24.042969 18.199219 24.089844 17.984375 24.191406 C 17.769531 24.285156 17.550781 24.335938 17.328125 24.414062 C 17.101562 24.492188 16.863281 24.527344 16.636719 24.605469 C 16.492188 24.65625 16.339844 24.640625 16.195312 24.683594 C 15.902344 24.765625 15.609375 24.761719 15.3125 24.804688 C 15.015625 24.828125 14.726562 24.78125 14.429688 24.839844 C 14.265625 24.816406 14.117188 24.804688 13.953125 24.808594 C 13.617188 24.761719 13.285156 24.757812 12.953125 24.679688 C 12.796875 24.636719 12.640625 24.667969 12.496094 24.609375 C 12.410156 24.574219 12.320312 24.546875 12.230469 24.53125 C 12.058594 24.5 11.902344 24.414062 11.734375 24.378906 C 11.59375 24.347656 11.46875 24.285156 11.335938 24.230469 C 10.96875 24.144531 10.613281 23.957031 10.28125 23.785156 C 10.125 23.710938 10.015625 23.601562 9.832031 23.605469 C 9.066406 23.152344 8.367188 22.59375 7.75 21.953125 C 7.15625 21.355469 6.675781 20.679688 6.242188 19.957031 C 6.269531 19.96875 6.296875 19.976562 6.324219 19.988281 C 6.21875 19.769531 6.089844 19.5625 5.996094 19.339844 C 5.902344 19.089844 5.765625 18.867188 5.699219 18.605469 C 5.640625 18.402344 5.53125 18.246094 5.5 18.03125 C 5.476562 17.8125 5.375 17.617188 5.339844 17.398438 C 5.316406 17.257812 5.261719 17.132812 5.257812 16.992188 C 5.246094 16.761719 5.15625 16.554688 5.171875 16.320312 C 5.191406 16.113281 5.117188 15.925781 5.132812 15.71875 C 5.144531 15.332031 5.105469 14.933594 5.160156 14.550781 C 5.234375 13.535156 5.507812 12.527344 5.910156 11.59375 C 6.0625 11.300781 6.171875 11 6.351562 10.722656 C 6.519531 10.390625 6.726562 10.085938 6.945312 9.785156 C 7.296875 9.332031 7.675781 8.871094 8.105469 8.484375 C 8.226562 8.371094 8.332031 8.246094 8.46875 8.148438 C 8.71875 7.972656 8.941406 7.765625 9.1875 7.589844 C 9.375 7.464844 9.566406 7.34375 9.753906 7.226562 C 9.949219 7.105469 10.15625 7.019531 10.355469 6.90625 C 10.53125 6.804688 10.730469 6.765625 10.910156 6.664062 C 11.144531 6.539062 11.390625 6.472656 11.640625 6.390625 C 12.066406 6.226562 12.527344 6.136719 12.972656 6.039062 C 13.242188 6 13.519531 5.972656 13.792969 5.953125 C 13.996094 5.960938 14.191406 5.925781 14.394531 5.902344 Z M 14.394531 5.902344 "/>
<path style=" stroke:none;fill-rule:nonzero;fill:rgb(88.235294%,13.333333%,17.647059%);fill-opacity:1;" d="M 14.960938 6.925781 C 16 7.515625 17.03125 8.121094 18.070312 8.714844 C 19.355469 9.460938 20.648438 10.203125 21.933594 10.953125 C 21.523438 11.230469 21.082031 11.457031 20.65625 11.707031 C 20.457031 11.824219 20.277344 11.949219 20.058594 12.027344 C 18.375 11.042969 16.675781 10.074219 14.988281 9.09375 C 14.871094 9.132812 14.769531 9.199219 14.664062 9.265625 C 13.074219 10.183594 11.480469 11.101562 9.890625 12.023438 C 9.449219 11.75 8.996094 11.5 8.546875 11.238281 C 8.371094 11.140625 8.195312 11.039062 8.035156 10.917969 C 8.128906 10.878906 8.21875 10.832031 8.304688 10.777344 C 9.816406 9.902344 11.332031 9.027344 12.84375 8.152344 C 13.550781 7.742188 14.261719 7.34375 14.960938 6.925781 Z M 14.960938 6.925781 "/>
<path style=" stroke:none;fill-rule:nonzero;fill:rgb(13.333333%,13.333333%,14.117647%);fill-opacity:1;" d="M 14.988281 9.09375 C 16.675781 10.074219 18.375 11.042969 20.058594 12.027344 C 20.054688 13.855469 20.054688 15.683594 20.054688 17.511719 C 20.054688 17.640625 20.0625 17.769531 20.050781 17.898438 C 20.03125 17.933594 19.976562 17.957031 19.945312 17.980469 C 18.285156 18.929688 16.632812 19.894531 14.972656 20.84375 C 14.859375 20.789062 14.746094 20.726562 14.636719 20.660156 C 13.054688 19.746094 11.472656 18.832031 9.890625 17.917969 C 9.890625 15.953125 9.886719 13.988281 9.890625 12.023438 C 11.480469 11.101562 13.074219 10.183594 14.664062 9.265625 C 14.769531 9.199219 14.871094 9.132812 14.988281 9.09375 Z M 14.988281 9.09375 "/>
<path style=" stroke:none;fill-rule:nonzero;fill:rgb(96.078431%,45.490196%,38.039216%);fill-opacity:1;" d="M 8.035156 10.917969 C 8.195312 11.039062 8.371094 11.140625 8.546875 11.238281 C 8.996094 11.5 9.449219 11.75 9.890625 12.023438 C 9.886719 13.988281 9.890625 15.953125 9.890625 17.917969 C 11.472656 18.832031 13.054688 19.746094 14.636719 20.660156 C 14.746094 20.726562 14.859375 20.789062 14.972656 20.84375 C 14.984375 21.492188 14.976562 22.140625 14.976562 22.789062 C 14.972656 22.859375 14.996094 22.925781 15.019531 22.992188 L 14.988281 23.035156 C 12.671875 21.683594 10.339844 20.347656 8.019531 19 C 8.011719 16.398438 8.019531 13.796875 8.015625 11.195312 C 8.015625 11.105469 8.003906 11 8.035156 10.917969 Z M 8.035156 10.917969 "/>
<path style=" stroke:none;fill-rule:nonzero;fill:rgb(69.411765%,9.803922%,12.941176%);fill-opacity:1;" d="M 21.933594 10.953125 C 21.929688 13.632812 21.9375 16.316406 21.929688 18.996094 C 21.628906 19.160156 21.332031 19.339844 21.03125 19.511719 C 19.5625 20.363281 18.089844 21.210938 16.617188 22.0625 C 16.085938 22.375 15.546875 22.675781 15.019531 22.992188 C 14.996094 22.925781 14.972656 22.859375 14.976562 22.789062 C 14.976562 22.140625 14.984375 21.492188 14.972656 20.84375 C 16.632812 19.894531 18.285156 18.929688 19.945312 17.980469 C 19.976562 17.957031 20.03125 17.933594 20.050781 17.898438 C 20.0625 17.769531 20.054688 17.640625 20.054688 17.511719 C 20.054688 15.683594 20.054688 13.855469 20.058594 12.027344 C 20.277344 11.949219 20.457031 11.824219 20.65625 11.707031 C 21.082031 11.457031 21.523438 11.230469 21.933594 10.953125 Z M 21.933594 10.953125 "/>
<path style=" stroke:none;fill-rule:nonzero;fill:rgb(100%,22.352941%,27.843137%);fill-opacity:1;" d="M 15.28125 11.441406 C 15.28125 11.613281 15.257812 11.785156 15.226562 11.953125 C 15.179688 12.230469 15.191406 12.511719 15.136719 12.785156 C 15.101562 12.972656 15.101562 13.148438 15 13.316406 C 14.582031 13.230469 14.148438 13.125 13.792969 12.878906 C 13.546875 12.703125 13.285156 12.398438 13.28125 12.085938 C 13.578125 11.769531 13.953125 11.636719 14.355469 11.523438 C 14.664062 11.417969 14.960938 11.445312 15.28125 11.441406 Z M 15.28125 11.441406 "/>
<path style=" stroke:none;fill-rule:nonzero;fill:rgb(100%,27.45098%,42.352941%);fill-opacity:1;" d="M 15.28125 11.441406 L 15.3125 11.441406 C 15.546875 11.445312 15.765625 11.4375 15.992188 11.515625 C 16.671875 11.691406 17.308594 12.082031 17.789062 12.59375 C 18.140625 12.996094 18.40625 13.496094 18.402344 14.042969 C 18.316406 13.714844 18.28125 13.410156 18.046875 13.148438 C 17.875 12.933594 17.664062 12.746094 17.441406 12.582031 C 17.277344 12.472656 17.074219 12.351562 16.871094 12.335938 C 16.691406 12.320312 16.523438 12.3125 16.371094 12.429688 C 16.300781 12.492188 16.183594 12.523438 16.214844 12.636719 C 16.289062 12.734375 16.414062 12.796875 16.492188 12.890625 C 16.507812 12.953125 16.496094 13.019531 16.492188 13.082031 C 16.289062 13.199219 16.074219 13.238281 15.84375 13.273438 C 15.574219 13.347656 15.277344 13.355469 15 13.316406 C 15.101562 13.148438 15.101562 12.972656 15.136719 12.785156 C 15.191406 12.511719 15.179688 12.230469 15.226562 11.953125 C 15.257812 11.785156 15.28125 11.613281 15.28125 11.441406 Z M 15.28125 11.441406 "/>
<path style=" stroke:none;fill-rule:nonzero;fill:rgb(99.215686%,62.352941%,84.705882%);fill-opacity:1;" d="M 13.101562 12.128906 C 13.230469 12.257812 13.191406 12.464844 13.160156 12.625 C 13.058594 13.015625 12.867188 13.402344 12.683594 13.761719 C 12.683594 13.671875 12.699219 13.585938 12.632812 13.515625 C 12.542969 13.40625 12.429688 13.320312 12.34375 13.210938 C 12.261719 13.105469 12.183594 13 12.074219 12.925781 C 11.992188 13.039062 11.925781 13.164062 11.84375 13.273438 C 11.855469 13.191406 11.863281 13.113281 11.90625 13.035156 C 12.027344 12.785156 12.199219 12.5625 12.433594 12.398438 L 12.34375 12.40625 C 12.484375 12.308594 12.632812 12.214844 12.789062 12.152344 C 12.882812 12.113281 13.003906 12.128906 13.101562 12.128906 Z M 13.101562 12.128906 "/>
<path style=" stroke:none;fill-rule:nonzero;fill:rgb(99.215686%,80.392157%,91.764706%);fill-opacity:1;" d="M 16.871094 12.335938 C 17.074219 12.351562 17.277344 12.472656 17.441406 12.582031 C 17.664062 12.746094 17.875 12.933594 18.046875 13.148438 C 18.058594 13.242188 18.070312 13.332031 18.085938 13.425781 C 17.785156 13.507812 17.5 13.628906 17.183594 13.660156 C 17.082031 13.511719 16.984375 13.363281 16.882812 13.21875 C 16.703125 12.960938 16.558594 12.679688 16.371094 12.429688 C 16.523438 12.3125 16.691406 12.320312 16.871094 12.335938 Z M 16.871094 12.335938 "/>
<path style=" stroke:none;fill-rule:nonzero;fill:rgb(100%,27.45098%,42.352941%);fill-opacity:1;" d="M 12.34375 12.40625 L 12.433594 12.398438 C 12.199219 12.5625 12.027344 12.785156 11.90625 13.035156 C 11.863281 13.113281 11.855469 13.191406 11.84375 13.273438 C 11.734375 13.597656 11.695312 13.960938 11.75 14.296875 C 11.808594 14.484375 11.910156 14.738281 12.105469 14.820312 C 12.175781 14.855469 12.25 14.882812 12.324219 14.910156 C 12.414062 14.773438 12.421875 14.621094 12.460938 14.46875 C 12.519531 14.429688 12.5625 14.390625 12.636719 14.414062 C 12.738281 14.464844 12.828125 14.550781 12.902344 14.636719 C 13.097656 14.867188 13.289062 15.078125 13.421875 15.347656 C 13.398438 15.421875 13.410156 15.496094 13.332031 15.53125 C 13.140625 15.636719 12.90625 15.652344 12.707031 15.746094 C 12.550781 15.820312 12.394531 15.898438 12.222656 15.949219 C 12.027344 16.019531 11.839844 16.035156 11.707031 16.210938 C 11.589844 15.925781 11.449219 15.617188 11.4375 15.308594 C 11.367188 15.019531 11.378906 14.726562 11.390625 14.429688 C 11.414062 14.246094 11.449219 14.066406 11.464844 13.878906 C 11.519531 13.652344 11.605469 13.425781 11.699219 13.210938 C 11.847656 12.902344 12.070312 12.613281 12.34375 12.40625 Z M 12.34375 12.40625 "/>
<path style=" stroke:none;fill-rule:nonzero;fill:rgb(99.215686%,80.392157%,91.764706%);fill-opacity:1;" d="M 12.074219 12.925781 C 12.183594 13 12.261719 13.105469 12.34375 13.210938 C 12.429688 13.320312 12.542969 13.40625 12.632812 13.515625 C 12.699219 13.585938 12.683594 13.671875 12.683594 13.761719 C 12.628906 13.867188 12.566406 13.96875 12.515625 14.074219 C 12.386719 14.328125 12.222656 14.5625 12.105469 14.820312 C 11.910156 14.738281 11.808594 14.484375 11.75 14.296875 C 11.695312 13.960938 11.734375 13.597656 11.84375 13.273438 C 11.925781 13.164062 11.992188 13.039062 12.074219 12.925781 Z M 12.074219 12.925781 "/>
<path style=" stroke:none;fill-rule:nonzero;fill:rgb(99.215686%,62.352941%,84.705882%);fill-opacity:1;" d="M 18.046875 13.148438 C 18.28125 13.410156 18.316406 13.714844 18.402344 14.042969 C 18.402344 14.191406 18.390625 14.347656 18.335938 14.484375 C 18.265625 14.621094 18.046875 14.597656 17.949219 14.515625 C 17.644531 14.292969 17.398438 13.964844 17.183594 13.660156 C 17.5 13.628906 17.785156 13.507812 18.085938 13.425781 C 18.070312 13.332031 18.058594 13.242188 18.046875 13.148438 Z M 18.046875 13.148438 "/>
<path style=" stroke:none;fill-rule:nonzero;fill:rgb(69.411765%,9.803922%,12.941176%);fill-opacity:1;" d="M 14.730469 13.859375 C 14.867188 13.84375 15.007812 13.847656 15.144531 13.855469 C 15.582031 13.929688 15.933594 14.285156 16.007812 14.71875 C 16.011719 14.871094 16.03125 15.042969 15.988281 15.191406 C 15.90625 15.40625 15.78125 15.652344 15.574219 15.773438 C 15.375 15.898438 15.152344 15.988281 14.910156 15.972656 C 14.375 15.945312 13.917969 15.492188 13.890625 14.953125 C 13.871094 14.671875 14 14.386719 14.175781 14.175781 C 14.304688 14.035156 14.542969 13.902344 14.730469 13.859375 Z M 14.730469 13.859375 "/>
<path style=" stroke:none;fill-rule:nonzero;fill:rgb(99.215686%,62.352941%,84.705882%);fill-opacity:1;" d="M 14.953125 13.949219 C 15.097656 13.972656 15.230469 13.960938 15.351562 14.03125 C 15.59375 14.144531 15.808594 14.367188 15.871094 14.632812 C 15.894531 14.722656 15.929688 14.820312 15.925781 14.914062 C 15.898438 15.101562 15.867188 15.277344 15.753906 15.433594 C 15.652344 15.605469 15.492188 15.714844 15.316406 15.796875 C 15.128906 15.871094 14.949219 15.855469 14.75 15.84375 C 14.492188 15.78125 14.292969 15.621094 14.144531 15.40625 C 13.949219 15.105469 13.960938 14.691406 14.152344 14.390625 C 14.320312 14.109375 14.625 13.957031 14.953125 13.949219 Z M 14.953125 13.949219 "/>
<path style=" stroke:none;fill-rule:nonzero;fill:rgb(100%,27.45098%,42.352941%);fill-opacity:1;" d="M 15.152344 14.015625 C 15.277344 14.0625 15.417969 14.132812 15.527344 14.210938 C 15.625 14.292969 15.738281 14.445312 15.796875 14.5625 C 15.824219 14.675781 15.851562 14.796875 15.859375 14.914062 C 15.84375 15.027344 15.824219 15.148438 15.792969 15.257812 C 15.710938 15.386719 15.617188 15.523438 15.496094 15.617188 C 15.289062 15.746094 15.085938 15.851562 14.832031 15.808594 C 14.5625 15.730469 14.316406 15.578125 14.164062 15.335938 C 14.109375 15.203125 14.078125 15.054688 14.058594 14.910156 C 14.066406 14.773438 14.117188 14.640625 14.140625 14.503906 C 14.183594 14.46875 14.226562 14.429688 14.269531 14.394531 C 14.257812 14.484375 14.25 14.5625 14.207031 14.640625 C 14.152344 14.742188 14.175781 14.882812 14.171875 14.992188 C 14.167969 15.128906 14.246094 15.246094 14.304688 15.363281 C 14.476562 15.636719 14.816406 15.769531 15.128906 15.695312 C 15.527344 15.625 15.808594 15.226562 15.769531 14.832031 C 15.761719 14.691406 15.691406 14.558594 15.621094 14.441406 C 15.492188 14.242188 15.234375 14.15625 15.011719 14.097656 C 14.882812 14.066406 14.800781 14.144531 14.675781 14.171875 C 14.601562 14.179688 14.527344 14.179688 14.453125 14.179688 C 14.546875 14.121094 14.652344 14.042969 14.761719 14.015625 C 14.882812 14.003906 15.03125 14.003906 15.152344 14.015625 Z M 15.152344 14.015625 "/>
<path style=" stroke:none;fill-rule:nonzero;fill:rgb(100%,100%,100%);fill-opacity:1;" d="M 14.980469 14.3125 C 15.125 14.484375 15.320312 14.566406 15.53125 14.628906 C 15.453125 14.835938 15.472656 15.058594 15.542969 15.265625 C 15.332031 15.328125 15.148438 15.429688 14.988281 15.582031 C 14.804688 15.441406 14.648438 15.304688 14.421875 15.253906 C 14.484375 15.054688 14.476562 14.824219 14.433594 14.621094 C 14.644531 14.582031 14.828125 14.460938 14.980469 14.3125 Z M 14.980469 14.3125 "/>
<path style=" stroke:none;fill-rule:nonzero;fill:rgb(99.215686%,62.352941%,84.705882%);fill-opacity:1;" d="M 14.90625 14.425781 C 15.070312 14.375 15.246094 14.566406 15.390625 14.625 C 15.328125 14.746094 15.117188 14.761719 14.992188 14.792969 C 14.855469 14.773438 14.609375 14.765625 14.542969 14.625 C 14.667969 14.5625 14.78125 14.484375 14.90625 14.425781 Z M 14.90625 14.425781 "/>
<path style=" stroke:none;fill-rule:nonzero;fill:rgb(99.215686%,62.352941%,84.705882%);fill-opacity:1;" d="M 15.4375 14.707031 C 15.4375 14.855469 15.460938 15.03125 15.414062 15.171875 C 15.324219 15.304688 15.15625 15.394531 15.003906 15.4375 C 15.003906 15.292969 14.996094 15.113281 15.058594 14.976562 C 15.15625 14.847656 15.273438 14.734375 15.4375 14.707031 Z M 15.4375 14.707031 "/>
<path style=" stroke:none;fill-rule:nonzero;fill:rgb(99.215686%,62.352941%,84.705882%);fill-opacity:1;" d="M 14.53125 14.675781 C 14.667969 14.757812 14.800781 14.835938 14.886719 14.972656 C 14.957031 15.109375 14.941406 15.304688 14.941406 15.453125 C 14.789062 15.398438 14.566406 15.3125 14.507812 15.148438 C 14.488281 14.996094 14.480469 14.824219 14.53125 14.675781 Z M 14.53125 14.675781 "/>
<path style=" stroke:none;fill-rule:nonzero;fill:rgb(100%,22.352941%,27.843137%);fill-opacity:1;" d="M 18.050781 14.824219 C 18.171875 14.84375 18.261719 14.945312 18.253906 15.070312 C 18.261719 15.375 18.277344 15.691406 18.183594 15.980469 C 18.121094 16.25 18.03125 16.488281 17.902344 16.734375 C 17.734375 16.613281 17.566406 16.503906 17.417969 16.363281 C 17.273438 16.222656 17.097656 16.132812 16.945312 16 C 16.773438 15.851562 16.628906 15.691406 16.414062 15.605469 C 16.703125 15.304688 17.0625 14.984375 17.46875 14.867188 C 17.65625 14.796875 17.855469 14.796875 18.050781 14.824219 Z M 18.050781 14.824219 "/>
<path style=" stroke:none;fill-rule:nonzero;fill:rgb(100%,22.352941%,27.843137%);fill-opacity:1;" d="M 13.421875 15.347656 C 13.617188 15.738281 13.703125 16.160156 13.730469 16.589844 C 13.738281 16.894531 13.695312 17.214844 13.511719 17.464844 C 13.441406 17.5625 13.375 17.710938 13.230469 17.691406 C 13.082031 17.660156 12.941406 17.574219 12.8125 17.496094 C 12.34375 17.164062 11.957031 16.726562 11.707031 16.210938 C 11.839844 16.035156 12.027344 16.019531 12.222656 15.949219 C 12.394531 15.898438 12.550781 15.820312 12.707031 15.746094 C 12.90625 15.652344 13.140625 15.636719 13.332031 15.53125 C 13.410156 15.496094 13.398438 15.421875 13.421875 15.347656 Z M 13.421875 15.347656 "/>
<path style=" stroke:none;fill-rule:nonzero;fill:rgb(100%,27.45098%,42.352941%);fill-opacity:1;" d="M 16.414062 15.605469 C 16.628906 15.691406 16.773438 15.851562 16.945312 16 C 17.097656 16.132812 17.273438 16.222656 17.417969 16.363281 C 17.566406 16.503906 17.734375 16.613281 17.902344 16.734375 C 17.777344 16.949219 17.644531 17.171875 17.472656 17.355469 C 17.132812 17.765625 16.648438 18.078125 16.164062 18.296875 C 15.707031 18.476562 15.253906 18.609375 14.753906 18.566406 C 14.4375 18.53125 14.105469 18.4375 13.839844 18.257812 C 13.964844 18.285156 14.070312 18.347656 14.1875 18.390625 C 14.363281 18.433594 14.550781 18.464844 14.734375 18.457031 C 15.054688 18.457031 15.386719 18.351562 15.675781 18.210938 C 15.878906 18.105469 16.066406 17.992188 16.195312 17.796875 C 16.28125 17.675781 16.347656 17.550781 16.339844 17.398438 C 16.34375 17.292969 16.335938 17.21875 16.28125 17.125 C 16.152344 17.15625 16.03125 17.21875 15.902344 17.25 C 15.824219 17.265625 15.785156 17.214844 15.722656 17.175781 C 15.699219 16.914062 15.828125 16.679688 15.910156 16.429688 C 16.011719 16.117188 16.195312 15.851562 16.414062 15.605469 Z M 16.414062 15.605469 "/>
<path style=" stroke:none;fill-rule:nonzero;fill:rgb(100%,100%,100%);fill-opacity:1;" d="M 16.339844 17.398438 C 16.347656 17.550781 16.28125 17.675781 16.195312 17.796875 C 16.066406 17.992188 15.878906 18.105469 15.675781 18.210938 C 15.632812 18.195312 15.589844 18.183594 15.550781 18.167969 C 15.648438 17.933594 15.714844 17.667969 15.742188 17.414062 C 15.941406 17.414062 16.140625 17.40625 16.339844 17.398438 Z M 16.339844 17.398438 "/>
<path style=" stroke:none;fill-rule:nonzero;fill:rgb(99.215686%,80.392157%,91.764706%);fill-opacity:1;" d="M 15.742188 17.414062 C 15.714844 17.667969 15.648438 17.933594 15.550781 18.167969 C 15.589844 18.183594 15.632812 18.195312 15.675781 18.210938 C 15.386719 18.351562 15.054688 18.457031 14.734375 18.457031 C 14.703125 18.148438 14.871094 17.816406 14.945312 17.515625 C 14.757812 17.453125 14.535156 17.503906 14.34375 17.507812 C 14.804688 17.460938 15.273438 17.40625 15.742188 17.414062 Z M 15.742188 17.414062 "/>
<path style=" stroke:none;fill-rule:nonzero;fill:rgb(99.215686%,62.352941%,84.705882%);fill-opacity:1;" d="M 14.34375 17.507812 C 14.535156 17.503906 14.757812 17.453125 14.945312 17.515625 C 14.871094 17.816406 14.703125 18.148438 14.734375 18.457031 C 14.550781 18.464844 14.363281 18.433594 14.1875 18.390625 C 14.070312 18.347656 13.964844 18.285156 13.839844 18.257812 C 13.746094 18.191406 13.640625 18.113281 13.578125 18.015625 C 13.554688 17.953125 13.570312 17.871094 13.570312 17.804688 C 13.769531 17.589844 14.074219 17.570312 14.34375 17.507812 Z M 14.34375 17.507812 "/>
</g>
</svg>
