<svg xmlns="http://www.w3.org/2000/svg" viewBox="0 0 30 30">
  <path d="M14.27 2.816c.363-.05.718-.03 1.082-.03.472.05.98.046 1.453.132a1.726 1.726 0 0 0-.426-.008c.039.106.043.125-.008.223.34.015.68.097 1.008.183.207.04.41.086.613.149a11.895 11.895 0 0 1 5.766 3.484 11.895 11.895 0 0 1 2.719 4.965c.101.356.171.715.23 1.082.094.422.11.848.148 1.277.024.465.024.934.004 1.399-.043.441-.058.879-.156 1.316a11.827 11.827 0 0 1-2.566 5.586c-.34.426-.723.793-1.11 1.172a12.222 12.222 0 0 1-2.617 1.824 12.77 12.77 0 0 1-1.992.809c-.29.086-.582.18-.879.242-.215.043-.426.063-.633.133.024.113-.082.152-.058.27.105-.016.207-.028.308-.044a2.81 2.81 0 0 1-.25.047c-.386.043-.77.102-1.156.13a25.23 25.23 0 0 1-1.2.007c-.503.004-1.015-.078-1.515-.14-.754-.133-1.5-.317-2.219-.583a12.29 12.29 0 0 1-4.082-2.472 20.784 20.784 0 0 1-.718-.719 12.18 12.18 0 0 1-2.965-5.73c-.074-.278-.098-.567-.153-.848-.039-.188-.035-.375-.062-.563-.023-.183-.008-.37-.035-.554-.028-.164-.016-.32-.02-.485.004-.265-.011-.53.031-.797.016-.457.06-.91.149-1.359.02-.168.05-.328.094-.488A12.142 12.142 0 0 1 6.77 5.965 12.171 12.171 0 0 1 12.8 2.98c.227-.03.454-.078.68-.109.266-.02.524-.055.79-.055Zm0 0" style="stroke:none;fill-rule:nonzero;fill:#b11921;fill-opacity:1"/>
  <path d="M16.379 2.91c.144-.02.281-.008.426.008a12.194 12.194 0 0 1 8.824 6.113 12.246 12.246 0 0 1 1.273 3.356c.035.258.11.508.137.765.02.215.063.426.078.641.07.527.047 1.066.047 1.598.008.5-.074.984-.133 1.484-.027.215-.086.426-.12.64a12.171 12.171 0 0 1-4.013 6.739 12.184 12.184 0 0 1-4.828 2.527c-.3.086-.605.137-.914.2-.101.015-.203.027-.308.042-.024-.117.082-.156.058-.27.207-.07.418-.089.633-.132.297-.062.59-.156.879-.242a12.77 12.77 0 0 0 1.992-.809 12.237 12.237 0 0 0 2.617-1.824c.387-.379.77-.746 1.11-1.172a11.827 11.827 0 0 0 2.566-5.586c.098-.437.113-.875.156-1.316.02-.465.02-.934-.004-1.399-.039-.43-.054-.855-.148-1.277a9.183 9.183 0 0 0-.23-1.082 11.895 11.895 0 0 0-2.72-4.965 11.895 11.895 0 0 0-5.765-3.484 5.605 5.605 0 0 0-.613-.149c-.328-.086-.668-.168-1.008-.183.05-.098.047-.117.008-.223Zm-3.223.39c.024.06.043.122.063.18l.047-.199a.451.451 0 0 1 .43.094c-.11-.023-.216-.047-.325-.04a.52.52 0 0 0 .164.114.288.288 0 0 0-.148.305c.039.058.093.101.14.148a1.426 1.426 0 0 1-.132.207c.035.114.097.204.027.32-.043.071-.024.133-.012.212l-.152.035c-.004.07-.008.14-.008.21.07-.058.145-.12.219-.179a.932.932 0 0 1-.2.379c-.285.023-.554.11-.835.172a10.015 10.015 0 0 0-4.598 2.656 10.064 10.064 0 0 0-2.727 5.117c-.03.211-.074.418-.105.625-.09.672-.09 1.34-.063 2.016.028.289.04.578.102.867.14.953.437 1.89.852 2.762.113.226.21.445.347.656.434.723.914 1.398 1.508 1.996a9.86 9.86 0 0 0 2.082 1.652c.125.102.27.176.41.25a9.978 9.978 0 0 0 3.645 1.125c.015.06.035.114.054.172a2.103 2.103 0 0 1-.238.07c-.015.016-.027.036-.043.055.043.004.086.012.13.016-.024.086-.08.125-.145.176.039.082.097.168.12.258-.015.09-.066.171-.074.257-.011.114.004.23.012.344a1.09 1.09 0 0 0-.133-.047c.067.114.176.117.293.153-.058.027-.113.05-.172.078.047.008.09.015.137.02l-.117.136c.078-.023.156-.05.23-.074 0 .027-.004.058-.004.086-.203.082-.374.004-.582.015a4.145 4.145 0 0 1-.925-.117c-.555-.137-1.102-.27-1.637-.48a12.027 12.027 0 0 1-1.754-.836 11.853 11.853 0 0 1-4.371-4.383 11.604 11.604 0 0 1-1.465-4.375 6 6 0 0 1-.082-.953c-.035-.547-.004-1.09.02-1.64.07-.645.175-1.298.34-1.923a11.855 11.855 0 0 1 3.488-5.777c1.41-1.3 3.14-2.23 4.992-2.719.27-.086.55-.125.828-.18a1.44 1.44 0 0 1 .367-.011Zm0 0" style="stroke:none;fill-rule:nonzero;fill:#e1222d;fill-opacity:1"/>
  <path d="M14.512 4.941c.422.004.855-.027 1.27.032.374.007.753.097 1.116.148a10.153 10.153 0 0 1 4.696 2.316c.195.204.426.368.61.583.116.136.233.265.358.39a10.288 10.288 0 0 1 1.594 2.512c.348.762.578 1.57.727 2.394.043.309.074.621.12.934.009.492.009.992 0 1.484-.042.313-.081.625-.12.938a10.087 10.087 0 0 1-5.445 7.324 9.773 9.773 0 0 1-3.165.961 8.829 8.829 0 0 1-2.386.023 9.978 9.978 0 0 1-3.645-1.125c-.14-.074-.285-.148-.41-.25.184-.003.293.106.45.18.331.172.687.36 1.054.445.133.055.258.118.398.149.168.035.325.121.496.152.09.016.18.043.266.078.145.059.3.028.457.07.332.079.664.083 1 .13a2.83 2.83 0 0 1 .477.03c.297-.058.586-.01.883-.034.296-.043.59-.04.882-.121.145-.043.297-.028.442-.079.226-.078.465-.113.691-.19.223-.08.442-.13.656-.224.215-.101.438-.148.637-.277a3.5 3.5 0 0 0 .61-.324 8.334 8.334 0 0 0 2.019-1.54c.21-.21.422-.402.602-.64.144-.187.296-.37.437-.562.254-.395.512-.754.707-1.18.129-.266.274-.516.363-.797.102-.312.243-.601.317-.922.054-.238.14-.472.168-.715.004-.199.086-.375.11-.57.03-.18.003-.36.038-.539.047-.234-.008-.465.043-.695.055-.262-.031-.496-.027-.758.004-.16-.043-.313-.04-.477.005-.183-.07-.343-.1-.535a4.737 4.737 0 0 0-.2-.875c-.05-.117-.055-.242-.094-.363-.187-.469-.36-.926-.59-1.379-.222-.402-.441-.793-.718-1.16a6.505 6.505 0 0 0-.934-1.113 11.417 11.417 0 0 0-1.121-1.004c-.25-.149-.469-.344-.73-.477-.391-.246-.797-.422-1.208-.625-.218-.11-.449-.156-.671-.246-.204-.07-.407-.129-.61-.2-.129-.05-.265-.03-.398-.066-.192-.074-.399-.074-.598-.136-.277-.086-.535-.008-.816-.063-.16-.031-.317-.02-.477-.02-.105 0-.207-.03-.308-.03-.204.023-.399.058-.602.05a11.8 11.8 0 0 0-.82.086c-.446.098-.907.188-1.332.352-.25.082-.496.148-.73.273-.18.102-.38.14-.556.242-.199.114-.406.2-.601.32-.188.118-.379.239-.566.364-.247.176-.47.383-.72.558-.136.098-.241.223-.363.336-.43.387-.808.848-1.16 1.301-.218.3-.425.606-.593.938-.18.277-.29.578-.442.87-.402.934-.676 1.942-.75 2.958-.055.383-.015.781-.027 1.168-.016.207.058.394.039.601-.016.235.074.442.086.672.004.14.058.266.082.406.035.22.137.415.16.633.031.215.14.371.2.574.066.262.202.485.296.735.094.223.223.43.328.648l-.082-.031c-.137-.21-.234-.43-.347-.656a9.806 9.806 0 0 1-.852-2.762c-.063-.289-.074-.578-.102-.867-.027-.676-.027-1.344.063-2.016.031-.207.074-.414.105-.625a10.064 10.064 0 0 1 2.727-5.117 10.015 10.015 0 0 1 4.598-2.656c.28-.063.55-.149.836-.172.414-.09.824-.113 1.242-.145Zm0 0" style="stroke:none;fill-rule:nonzero;fill:#b5ab96;fill-opacity:1"/>
  <path d="M14.395 5.902c.101 0 .203.032.308.032.16 0 .317-.012.477.02.28.054.539-.024.816.062.2.062.406.062.598.136.133.035.27.016.398.067.203.07.406.129.61.199.222.09.453.137.671.246.41.203.817.379 1.207.625.262.133.48.328.73.477.4.308.77.648 1.122 1.004.355.332.664.714.934 1.113.277.367.496.758.718 1.16.23.453.403.91.59 1.379.04.121.043.246.094.363.098.281.156.578.2.875.03.192.105.352.1.535-.003.164.044.317.04.477-.004.262.082.496.027.758-.05.23.004.46-.043.695-.035.18-.008.36-.039.54-.023.194-.105.37-.11.57-.027.242-.113.476-.167.714-.074.32-.215.61-.317.922-.09.281-.234.531-.363.797-.195.426-.453.785-.707 1.18-.14.191-.293.375-.437.562-.18.238-.391.43-.602.64a8.334 8.334 0 0 1-2.02 1.54 3.5 3.5 0 0 1-.609.324c-.2.129-.422.176-.637.277-.214.094-.433.145-.656.223-.226.078-.465.113-.691.191-.145.051-.297.036-.442.079-.293.082-.586.078-.883.12-.296.024-.585-.023-.882.036a2.792 2.792 0 0 0-.477-.031c-.336-.047-.668-.051-1-.13-.156-.042-.312-.011-.457-.07a1.292 1.292 0 0 0-.266-.078c-.171-.031-.328-.117-.496-.152-.14-.031-.265-.094-.398-.149-.367-.085-.723-.273-1.055-.445-.156-.074-.265-.183-.449-.18a9.893 9.893 0 0 1-2.082-1.652c-.594-.598-1.074-1.273-1.508-1.996.028.012.055.02.082.031-.105-.218-.234-.425-.328-.648-.094-.25-.23-.473-.297-.735-.058-.203-.168-.359-.199-.574-.023-.218-.125-.414-.16-.633-.024-.14-.078-.265-.082-.406-.012-.23-.102-.437-.086-.672.02-.207-.055-.394-.04-.601.013-.387-.027-.785.028-1.168.074-1.016.348-2.024.75-2.957.152-.293.262-.594.442-.871.168-.332.375-.637.593-.938.352-.453.73-.914 1.16-1.3.122-.114.227-.239.364-.337.25-.175.472-.382.719-.558.187-.125.378-.246.566-.363.195-.122.402-.207.601-.32.176-.102.375-.141.555-.243.235-.125.48-.191.73-.273.426-.164.887-.254 1.333-.352a11.8 11.8 0 0 1 .82-.086c.203.008.398-.027.602-.05Zm0 0" style="stroke:none;fill-rule:nonzero;fill:#eaddc3;fill-opacity:1"/>
  <path d="M14.96 6.926c1.04.59 2.071 1.195 3.11 1.789 1.285.746 2.578 1.488 3.864 2.238-.41.277-.852.504-1.278.754-.199.117-.379.242-.597.32-1.684-.984-3.383-1.953-5.07-2.933-.118.039-.22.105-.325.172-1.59.918-3.184 1.836-4.773 2.757-.442-.273-.895-.523-1.344-.785a4.32 4.32 0 0 1-.512-.32c.094-.04.184-.086.27-.14 1.511-.876 3.027-1.75 4.539-2.626.707-.41 1.418-.808 2.117-1.226Zm0 0" style="stroke:none;fill-rule:nonzero;fill:#e1222d;fill-opacity:1"/>
  <path d="M14.988 9.094c1.688.98 3.387 1.949 5.07 2.933-.003 1.828-.003 3.657-.003 5.485 0 .129.008.258-.004.386-.02.036-.074.059-.106.082-1.66.95-3.312 1.915-4.972 2.864a4.021 4.021 0 0 1-.336-.184L9.89 17.918c0-1.965-.004-3.93 0-5.895 1.59-.921 3.183-1.84 4.773-2.757.106-.067.207-.133.324-.172Zm0 0" style="stroke:none;fill-rule:nonzero;fill:#222224;fill-opacity:1"/>
  <path d="M8.035 10.918c.16.121.336.223.512.32.45.262.902.512 1.344.785-.004 1.965 0 3.93 0 5.895l4.746 2.742c.11.067.222.13.336.184.011.648.004 1.297.004 1.945-.004.07.02.137.043.203l-.032.043C12.672 21.684 10.34 20.348 8.02 19c-.008-2.602 0-5.203-.004-7.805 0-.09-.012-.195.02-.277Zm0 0" style="stroke:none;fill-rule:nonzero;fill:#f57461;fill-opacity:1"/>
  <path d="M21.934 10.953c-.004 2.68.003 5.363-.004 8.043-.301.164-.598.344-.899.516-1.468.851-2.941 1.699-4.414 2.55-.531.313-1.07.614-1.597.93a.514.514 0 0 1-.043-.203c0-.648.007-1.297-.004-1.945 1.66-.95 3.312-1.914 4.972-2.864.032-.023.086-.046.106-.082.012-.128.004-.257.004-.386 0-1.828 0-3.657.004-5.485.218-.078.398-.203.597-.32.426-.25.867-.477 1.278-.754Zm0 0" style="stroke:none;fill-rule:nonzero;fill:#b11921;fill-opacity:1"/>
  <path d="M15.281 11.441c0 .172-.023.344-.054.512-.047.277-.036.559-.09.832-.035.188-.035.363-.137.531-.418-.086-.852-.191-1.207-.437-.246-.176-.508-.48-.512-.793.297-.316.672-.45 1.074-.563.31-.105.606-.078.926-.082Zm0 0" style="stroke:none;fill-rule:nonzero;fill:#ff3947;fill-opacity:1"/>
  <path d="M15.281 11.441h.031c.235.004.454-.004.68.075a3.82 3.82 0 0 1 1.797 1.078c.352.402.617.902.613 1.449-.086-.328-.12-.633-.355-.895a3.206 3.206 0 0 0-.606-.566c-.164-.11-.367-.23-.57-.246-.18-.016-.348-.024-.5.094-.07.062-.187.093-.156.207.074.097.2.16.277.254.016.062.004.129 0 .191-.203.117-.418.156-.648.191-.27.075-.567.082-.844.043.102-.168.102-.343.137-.53.054-.274.043-.556.09-.833a2.81 2.81 0 0 0 .054-.512Zm0 0" style="stroke:none;fill-rule:nonzero;fill:#ff466c;fill-opacity:1"/>
  <path d="M13.102 12.129c.128.129.09.336.058.496-.101.39-.293.777-.476 1.137 0-.09.015-.176-.051-.246-.09-.11-.203-.196-.29-.305-.081-.106-.16-.211-.269-.285-.082.113-.148.238-.23.347.011-.082.02-.16.062-.238a1.63 1.63 0 0 1 .528-.637l-.09.008c.14-.097.289-.191.445-.254.094-.039.215-.023.313-.023Zm0 0" style="stroke:none;fill-rule:nonzero;fill:#fd9fd8;fill-opacity:1"/>
  <path d="M16.871 12.336c.203.016.406.137.57.246.223.164.434.352.606.566.012.094.023.184.039.278-.3.082-.586.203-.902.234-.102-.148-.2-.297-.301-.441-.18-.258-.324-.54-.512-.79.152-.117.32-.109.5-.093Zm0 0" style="stroke:none;fill-rule:nonzero;fill:#fdcdea;fill-opacity:1"/>
  <path d="m12.344 12.406.09-.008a1.63 1.63 0 0 0-.528.637c-.043.078-.05.156-.062.238-.11.325-.149.688-.094 1.024.059.187.16.441.355.523.07.035.145.063.22.09.09-.137.097-.289.136-.441.059-.04.101-.078.176-.055.101.05.191.137.265.223.196.23.387.441.52.71-.024.075-.012.15-.09.184-.191.106-.426.121-.625.215-.156.074-.312.152-.484.203-.196.07-.383.086-.516.262-.117-.285-.258-.594-.27-.902-.07-.29-.058-.582-.046-.88.023-.183.058-.363.074-.55.055-.227.14-.453.234-.668a2.23 2.23 0 0 1 .645-.805Zm0 0" style="stroke:none;fill-rule:nonzero;fill:#ff466c;fill-opacity:1"/>
  <path d="M12.074 12.926c.11.074.188.18.27.285.086.11.199.195.289.305.066.07.05.156.05.246-.054.105-.117.207-.167.312-.13.254-.293.489-.41.746-.196-.082-.297-.336-.356-.523-.055-.336-.016-.7.094-1.024.082-.109.148-.234.23-.347Zm0 0" style="stroke:none;fill-rule:nonzero;fill:#fdcdea;fill-opacity:1"/>
  <path d="M18.047 13.148c.234.262.27.567.355.895a1.2 1.2 0 0 1-.066.441c-.07.137-.29.114-.387.032-.304-.223-.55-.551-.765-.856.316-.031.601-.152.902-.234a6.76 6.76 0 0 1-.04-.278Zm0 0" style="stroke:none;fill-rule:nonzero;fill:#fd9fd8;fill-opacity:1"/>
  <path d="M14.73 13.86a2.5 2.5 0 0 1 .415-.005c.437.075.789.43.863.864.004.152.023.324-.02.472-.082.215-.207.461-.414.582-.199.125-.422.215-.664.2a1.096 1.096 0 0 1-1.02-1.02c-.019-.281.11-.566.286-.777.129-.14.367-.274.554-.317Zm0 0" style="stroke:none;fill-rule:nonzero;fill:#b11921;fill-opacity:1"/>
  <path d="M14.953 13.95c.145.023.277.01.399.081.242.114.457.336.52.602.023.09.058.187.054.281-.028.188-.059.363-.172.52-.102.171-.262.28-.438.363-.187.074-.367.058-.566.047a1.027 1.027 0 0 1-.605-.438.962.962 0 0 1 .007-1.015c.168-.282.473-.434.801-.442Zm0 0" style="stroke:none;fill-rule:nonzero;fill:#fd9fd8;fill-opacity:1"/>
  <path d="M15.152 14.016c.125.046.266.117.375.195.098.082.211.234.27.351.027.114.055.235.062.352a2.544 2.544 0 0 1-.066.344 1.39 1.39 0 0 1-.297.36c-.207.128-.41.234-.664.19-.27-.078-.516-.23-.668-.472a1.743 1.743 0 0 1-.105-.426c.007-.137.058-.27.082-.406.043-.035.086-.074.129-.11-.012.09-.02.168-.063.247-.055.101-.031.242-.035.351-.004.137.074.254.133.371a.772.772 0 0 0 .824.332c.398-.07.68-.468.64-.863-.007-.14-.078-.273-.148-.39-.129-.2-.387-.286-.61-.344-.128-.032-.21.047-.335.074-.074.008-.149.008-.223.008.094-.059.2-.137.309-.164.12-.012.27-.012.39 0Zm0 0" style="stroke:none;fill-rule:nonzero;fill:#ff466c;fill-opacity:1"/>
  <path d="M14.98 14.313c.145.171.34.253.551.316a.939.939 0 0 0 .012.637 1.334 1.334 0 0 0-.555.316c-.183-.14-.34-.277-.566-.328.062-.2.055-.43.012-.633.21-.039.394-.16.546-.309Zm0 0" style="stroke:none;fill-rule:nonzero;fill:#fff;fill-opacity:1"/>
  <path d="M14.906 14.426c.164-.051.34.14.485.199-.063.121-.274.137-.399.168-.137-.02-.383-.027-.449-.168.125-.063.238-.14.363-.2Zm.532.281c0 .148.023.324-.024.465-.09.133-.258.223-.41.265 0-.144-.008-.324.055-.46.097-.13.214-.243.379-.27Zm-.907-.031c.137.082.27.16.356.297.07.136.054.332.054.48-.152-.055-.375-.14-.433-.305a1.073 1.073 0 0 1 .023-.472Zm0 0" style="stroke:none;fill-rule:nonzero;fill:#fd9fd8;fill-opacity:1"/>
  <path d="M18.05 14.824c.122.02.212.121.204.246.008.305.023.621-.07.91a3.09 3.09 0 0 1-.282.754c-.168-.12-.336-.23-.484-.37-.145-.141-.32-.231-.473-.364-.172-.148-.316-.309-.53-.395.288-.3.648-.62 1.054-.738.187-.07.386-.07.582-.043Zm-4.628.524c.195.39.281.812.308 1.242.008.305-.035.625-.218.875-.07.098-.137.246-.282.226-.148-.03-.289-.117-.418-.195a3.408 3.408 0 0 1-1.105-1.285c.133-.176.32-.191.516-.262.172-.05.328-.129.484-.203.2-.094.434-.11.625-.215.078-.035.066-.11.09-.183Zm0 0" style="stroke:none;fill-rule:nonzero;fill:#ff3947;fill-opacity:1"/>
  <path d="M16.414 15.605c.215.086.36.247.531.395.153.133.328.223.473.363.148.14.316.25.484.371a3.386 3.386 0 0 1-.43.621c-.34.41-.824.723-1.308.942-.457.18-.91.312-1.41.27-.316-.036-.649-.13-.914-.31.125.028.23.09.348.134.175.043.363.074.546.066.32 0 .653-.105.942-.246.203-.106.39-.219.52-.414.085-.121.152-.246.144-.399a.447.447 0 0 0-.059-.273c-.129.031-.25.094-.379.125-.078.016-.117-.035-.18-.074-.023-.262.106-.496.188-.746.102-.313.285-.578.504-.825Zm0 0" style="stroke:none;fill-rule:nonzero;fill:#ff466c;fill-opacity:1"/>
  <path d="M16.34 17.398c.008.153-.059.278-.145.399-.129.195-.316.308-.52.414-.042-.016-.085-.027-.124-.043.097-.234.164-.5.191-.754.2 0 .399-.008.598-.016Zm0 0" style="stroke:none;fill-rule:nonzero;fill:#fff;fill-opacity:1"/>
  <path d="M15.742 17.414c-.027.254-.094.52-.191.754.039.016.082.027.125.043-.29.14-.621.246-.942.246-.03-.309.137-.64.211-.941-.187-.063-.41-.012-.601-.008.46-.047.93-.102 1.398-.094Zm0 0" style="stroke:none;fill-rule:nonzero;fill:#fdcdea;fill-opacity:1"/>
  <path d="M14.344 17.508c.191-.004.414-.055.601.008-.074.3-.242.632-.21.941a1.98 1.98 0 0 1-.547-.066c-.118-.043-.223-.106-.348-.133a.968.968 0 0 1-.262-.242c-.023-.063-.008-.145-.008-.211.2-.215.504-.235.774-.297Zm0 0" style="stroke:none;fill-rule:nonzero;fill:#fd9fd8;fill-opacity:1"/>
</svg>
